<svg width="24" height="25" viewBox="0 0 24 25" fill="none" xmlns="http://www.w3.org/2000/svg">
<path d="M12.71 9.0566C12.6149 8.96556 12.5028 8.89419 12.38 8.8466C12.1365 8.74658 11.8635 8.74658 11.62 8.8466C11.4972 8.89419 11.3851 8.96556 11.29 9.0566L8.29 12.0566C8.1017 12.2449 7.99591 12.5003 7.99591 12.7666C7.99591 13.0329 8.1017 13.2883 8.29 13.4766C8.4783 13.6649 8.7337 13.7707 9 13.7707C9.2663 13.7707 9.5217 13.6649 9.71 13.4766L11 12.1766L11 15.7666C11 16.0318 11.1054 16.2862 11.2929 16.4737C11.4804 16.6612 11.7348 16.7666 12 16.7666C12.2652 16.7666 12.5196 16.6612 12.7071 16.4737C12.8946 16.2862 13 16.0318 13 15.7666L13 12.1766L14.29 13.4766C14.383 13.5703 14.4936 13.6447 14.6154 13.6955C14.7373 13.7463 14.868 13.7724 15 13.7724C15.132 13.7724 15.2627 13.7463 15.3846 13.6955C15.5064 13.6447 15.617 13.5703 15.71 13.4766C15.8037 13.3836 15.8781 13.273 15.9289 13.1512C15.9797 13.0293 16.0058 12.8986 16.0058 12.7666C16.0058 12.6346 15.9797 12.5039 15.9289 12.382C15.8781 12.2602 15.8037 12.1496 15.71 12.0566L12.71 9.0566ZM12 2.7666C10.0222 2.7666 8.08879 3.35309 6.4443 4.4519C4.79981 5.55072 3.51808 7.1125 2.7612 8.93976C2.00433 10.767 1.80629 12.7777 2.19215 14.7175C2.578 16.6573 3.53041 18.4391 4.92893 19.8377C6.32746 21.2362 8.10929 22.1886 10.0491 22.5745C11.9889 22.9603 13.9996 22.7623 15.8268 22.0054C17.6541 21.2485 19.2159 19.9668 20.3147 18.3223C21.4135 16.6778 22 14.7444 22 12.7666C22 10.1144 20.9464 7.57089 19.0711 5.69553C18.1425 4.76695 17.0401 4.03035 15.8268 3.5278C14.6136 3.02526 13.3132 2.7666 12 2.7666ZM12 20.7666C10.4177 20.7666 8.87103 20.2974 7.55544 19.4184C6.23984 18.5393 5.21446 17.2899 4.60896 15.8281C4.00346 14.3663 3.84503 12.7577 4.15372 11.2059C4.4624 9.65403 5.22432 8.22856 6.34314 7.10974C7.46196 5.99092 8.88743 5.229 10.4393 4.92032C11.9911 4.61163 13.5997 4.77006 15.0615 5.37556C16.5233 5.98106 17.7727 7.00644 18.6518 8.32204C19.5308 9.63763 20 11.1843 20 12.7666C20 14.8883 19.1571 16.9232 17.6569 18.4235C16.1566 19.9237 14.1217 20.7666 12 20.7666Z" fill="white"/>
</svg>
