<svg width="24" height="25" viewBox="0 0 24 25" fill="none" xmlns="http://www.w3.org/2000/svg">
<path d="M11.29 16.4766C11.3851 16.5676 11.4972 16.639 11.62 16.6866C11.8635 16.7866 12.1365 16.7866 12.38 16.6866C12.5028 16.639 12.6149 16.5676 12.71 16.4766L15.71 13.4766C15.8983 13.2883 16.0041 13.0329 16.0041 12.7666C16.0041 12.5003 15.8983 12.2449 15.71 12.0566C15.5217 11.8683 15.2663 11.7625 15 11.7625C14.7337 11.7625 14.4783 11.8683 14.29 12.0566L13 13.3566L13 9.76661C13 9.50139 12.8946 9.24704 12.7071 9.0595C12.5196 8.87196 12.2652 8.76661 12 8.76661C11.7348 8.76661 11.4804 8.87196 11.2929 9.0595C11.1054 9.24704 11 9.50139 11 9.76661L11 13.3566L9.71 12.0566C9.61704 11.9629 9.50644 11.8885 9.38458 11.8377C9.26272 11.7869 9.13201 11.7608 9 11.7608C8.86799 11.7608 8.73728 11.7869 8.61542 11.8377C8.49356 11.8885 8.38296 11.9629 8.29 12.0566C8.19627 12.1496 8.12188 12.2602 8.07111 12.382C8.02034 12.5039 7.9942 12.6346 7.9942 12.7666C7.9942 12.8986 8.02034 13.0293 8.07111 13.1512C8.12188 13.273 8.19627 13.3836 8.29 13.4766L11.29 16.4766ZM12 22.7666C13.9778 22.7666 15.9112 22.1801 17.5557 21.0813C19.2002 19.9825 20.4819 18.4207 21.2388 16.5934C21.9957 14.7662 22.1937 12.7555 21.8079 10.8157C21.422 8.87589 20.4696 7.09406 19.0711 5.69554C17.6725 4.29701 15.8907 3.34461 13.9509 2.95875C12.0111 2.5729 10.0004 2.77093 8.17317 3.52781C6.3459 4.28469 4.78412 5.56641 3.6853 7.2109C2.58649 8.8554 2 10.7888 2 12.7666C2 15.4188 3.05357 17.9623 4.92893 19.8377C5.85752 20.7663 6.95991 21.5029 8.17317 22.0054C9.38642 22.5079 10.6868 22.7666 12 22.7666ZM12 4.76661C13.5823 4.76661 15.129 5.2358 16.4446 6.11485C17.7602 6.9939 18.7855 8.24333 19.391 9.70514C19.9965 11.1669 20.155 12.7755 19.8463 14.3273C19.5376 15.8792 18.7757 17.3046 17.6569 18.4235C16.538 19.5423 15.1126 20.3042 13.5607 20.6129C12.0089 20.9216 10.4003 20.7631 8.93853 20.1576C7.47672 19.5521 6.22729 18.5268 5.34824 17.2112C4.46919 15.8956 4 14.3489 4 12.7666C4 10.6449 4.84285 8.61004 6.34315 7.10975C7.84344 5.60946 9.87827 4.76661 12 4.76661Z" fill="white"/>
</svg>
