<svg width="232" height="167" viewBox="0 0 232 167" fill="none" xmlns="http://www.w3.org/2000/svg">
<path d="M143.292 19.8034C140.391 18.1218 137.145 17.1418 133.804 16.94C130.167 17.1033 126.616 18.1122 123.428 19.8899L123.256 16.4595L124.373 13.8748C127.007 12.0203 130.129 10.9825 133.346 10.8769C136.945 10.579 140.505 11.8089 143.159 14.2591L143.76 17.382L143.283 19.7938L143.292 19.8034Z" fill="#D51B5D"/>
<path d="M150.518 47.8128L145.516 56.4991C145.516 56.4991 121.527 32.6214 119.637 28.2782C117.737 23.9351 118.301 18.3524 121.489 15.9502C122.51 15.1238 123.579 14.3648 124.706 13.6921C124.706 13.6921 122.377 15.8637 124.381 20.5336C126.386 25.2034 137.946 35.7346 137.946 35.7346L150.518 47.832V47.8128Z" fill="#D51B5D"/>
<path d="M116.373 47.5536L121.394 56.2399C121.394 56.2399 145.383 32.3621 147.273 28.019C149.173 23.6758 148.629 18.122 145.44 15.7102C144.39 14.8358 143.283 14.0479 142.118 13.3464C142.118 13.3464 144.447 15.518 142.443 20.1879C140.438 24.8577 128.878 35.3889 128.878 35.3889L116.373 47.5728V47.5536Z" fill="#D51B5D"/>
<path d="M22.0983 15.2197H36.331C43.0131 15.2197 50.3061 16.6322 50.3061 24.9918C50.3252 29.0083 47.6046 32.5059 43.729 33.4571C48.5401 33.8799 52.2057 37.9924 52.1007 42.8545C52.1007 50.8874 44.5309 53.5586 37.7343 53.5586H22.0983V15.2197ZM30.5081 30.5937H36.6079C39.1948 30.5937 41.8962 29.5079 41.8962 26.4043C41.8962 23.3007 38.8798 22.3686 36.226 22.3686H30.5081V30.5937ZM30.5081 46.5058H38.0588C40.7126 46.5058 43.6622 45.3527 43.6622 41.9897C43.6622 38.6266 39.6243 37.7522 36.8656 37.7522H30.3936L30.4986 46.5058H30.5081Z" fill="#D51B5D"/>
<path d="M54.1245 15.2197H68.9205C76.729 15.2197 83.3251 17.9294 83.3251 26.904C83.7165 32.0446 80.1177 36.628 75.068 37.4351L84.7761 53.6739H74.6862L66.7059 38.2999H62.563V53.6739H54.1341V15.2197H54.1245ZM62.5534 31.0453H67.5173C70.5815 31.0453 74.5716 31.0453 74.5716 26.7022C74.5716 22.8587 71.116 22.2533 68.0996 22.2533H62.6012L62.5534 31.0453Z" fill="#D51B5D"/>
<path d="M86.1799 15.2202H112.125V23.0417H94.5898V30.2002H111.152V38.041H94.5898V45.8625H113.09V53.6744H86.1799V15.2202Z" fill="#D51B5D"/>
<path d="M173.352 24.281C171.768 22.5995 169.553 21.6771 167.252 21.7155C164.876 21.7155 161.582 22.8013 161.582 25.6839C161.582 32.6983 179.185 28.1822 179.185 41.644C179.185 50.3303 172.321 54.2987 164.456 54.2987C159.711 54.4525 155.11 52.7229 151.626 49.4752L157.602 42.8355C159.358 45.1224 162.06 46.4676 164.933 46.4868C167.692 46.4868 170.775 45.18 170.775 42.4704C170.775 35.4176 152.848 39.213 152.848 26.4046C152.848 18.1987 159.921 13.9036 167.424 13.9036C171.691 13.7787 175.844 15.2488 179.089 18.0257L173.352 24.281Z" fill="#D51B5D"/>
<path d="M190.975 22.7145H180.083V15.2197H210.286V22.7145H199.394V53.6739H190.975V22.7145Z" fill="#D51B5D"/>
<path d="M66.9356 59.9009H73.0831L87.7263 93.7909H79.3547L76.4432 86.6036H63.3559L60.5494 93.7909H52.3496L66.926 59.9009H66.9356ZM69.828 69.7594L65.7328 80.2906H73.9517L69.828 69.7594Z" fill="#D51B5D"/>
<path d="M89.3491 59.9009H99.4199L113.739 83.4615H113.825V59.9009H121.251V93.7909H111.562L96.8521 69.6537H96.7662V93.7909H89.3491V59.9009Z" fill="#D51B5D"/>
<path d="M147.129 68.7022C145.545 66.8477 143.196 65.8292 140.762 65.9253C135.13 65.9253 130.987 70.5279 130.987 76.7832C130.987 83.0385 135.13 87.6411 140.495 87.6411C143.263 87.7564 145.898 86.4304 147.463 84.1243L153.649 88.7749C150.785 92.6184 146.251 94.8188 141.488 94.6843C130.959 94.6843 123.303 87.7371 123.303 76.86C123.303 65.983 130.959 59.0551 141.488 59.0551C145.821 58.9109 150.002 60.7366 152.857 64.0228L147.12 68.7118L147.129 68.7022Z" fill="#D51B5D"/>
<path d="M182.373 59.9009H195.422C202.305 59.9009 208.108 62.2935 208.108 70.1918C208.481 74.7272 205.311 78.7821 200.844 79.4835L209.473 93.7909H200.586L193.532 80.2426H189.866V93.7909H182.449L182.382 59.9009H182.373ZM189.79 73.9296H194.105C196.825 73.9296 200.338 73.9296 200.338 70.1534C200.338 66.3772 197.293 66.2234 194.582 66.2234H189.733L189.8 73.9296H189.79Z" fill="#D51B5D"/>
<path d="M29.2096 99.5654H22.2889V131.178H29.2096V99.5654Z" fill="#D51B5D"/>
<path d="M34.9088 99.5654H47.051C53.5231 99.5654 58.8878 101.737 58.8878 109.165C59.2219 113.392 56.2723 117.169 52.1198 117.851L60.1001 131.207H51.7953L45.3232 118.572H41.7817V131.207H34.8801L34.8992 99.575L34.9088 99.5654ZM41.8104 112.595H45.9055C48.4256 112.595 51.7094 112.595 51.7094 109.078C51.7094 105.561 48.8647 105.408 46.3351 105.408H41.7817L41.8008 112.595H41.8104Z" fill="#D51B5D"/>
<path d="M63.2881 99.5464H84.6229V105.994H70.2183V111.884H83.8211V118.303H70.2183V124.75H85.4248V131.178H63.2881V99.5464Z" fill="#D51B5D"/>
<path d="M89.197 99.5464H96.1177V124.75H108.928V131.178H89.197V99.5464Z" fill="#D51B5D"/>
<path d="M123.877 99.5654H129.614L143.264 131.178H135.456L132.764 124.404H120.555L117.949 131.111H110.312L123.877 99.5654ZM126.55 108.751L122.731 118.591H130.406L126.55 108.751Z" fill="#D51B5D"/>
<path d="M145.793 99.5464H155.196L168.551 121.541H168.656V99.5464H175.557V131.178H166.517L152.8 108.665H152.714V131.178H145.793V99.5464Z" fill="#D51B5D"/>
<path d="M181.332 99.5654H191.709C201.827 99.5654 210.304 103.909 210.304 115.458C210.304 125.682 201.999 131.178 192.635 131.178H181.332V99.5654ZM188.253 124.75H191.833C198.305 124.75 203.116 122.271 203.116 115.093C203.116 108.886 198.181 105.994 192.329 105.994H188.253V124.75Z" fill="#D51B5D"/>
<path d="M27.3216 140.585C27.6653 140.585 27.8562 140.672 27.9039 140.844C27.9326 141.094 27.9326 141.335 27.9039 141.584V142.017C27.9326 142.122 27.9326 142.238 27.9039 142.343C27.8085 142.449 27.6844 142.526 27.5412 142.536C27.3789 142.516 27.2071 142.516 27.0448 142.536L26.4625 142.67C26.2811 142.709 26.1093 142.766 25.947 142.843C25.5366 143.016 25.1834 143.295 24.9161 143.65C24.6488 143.996 24.4102 144.38 24.2288 144.774C24.1715 144.938 24.1333 145.101 24.0952 145.274C24.1047 145.447 24.1047 145.62 24.0952 145.793C24.0761 145.87 24.0761 145.956 24.0952 146.033C24.0952 146.1 24.0952 146.177 24.0952 146.254C24.0665 146.456 24.0665 146.658 24.0952 146.86V150.741C24.1047 150.914 24.1047 151.087 24.0952 151.26C24.0856 151.395 24.0856 151.539 24.0952 151.674C24.1429 151.77 24.1429 151.885 24.0952 151.981C24.0092 152.087 23.8851 152.164 23.7515 152.173H22.6346C22.5774 152.154 22.5201 152.116 22.4819 152.067C22.4055 151.962 22.3674 151.827 22.3769 151.702C22.3674 151.539 22.3674 151.385 22.3769 151.222V141.777C22.3674 141.623 22.3674 141.469 22.3769 141.325C22.3769 141.2 22.4151 141.075 22.4819 140.979C22.5487 140.902 22.6251 140.854 22.7206 140.825H23.7992C23.9138 140.864 23.9997 140.969 24.0188 141.085C24.0379 141.219 24.0379 141.363 24.0188 141.498V141.93C23.9901 142.065 23.9901 142.209 24.0188 142.343C24.1811 142.353 24.3338 142.267 24.4102 142.122L24.687 141.796L24.8206 141.642C24.9829 141.459 25.1643 141.286 25.3552 141.142C25.5652 140.989 25.7943 140.844 26.0234 140.729L26.4339 140.575L26.9112 140.441H27.4075" fill="#D51B5D"/>
<path d="M39.6356 146.12C39.6738 146.283 39.6738 146.456 39.6356 146.62C39.6356 146.754 39.5784 146.889 39.4829 146.985C39.3875 147.062 39.2824 147.11 39.1584 147.119H31.7126C31.6172 147.091 31.5122 147.091 31.4072 147.119C31.3403 147.167 31.2831 147.225 31.2353 147.292C31.2353 147.35 31.2353 147.408 31.2353 147.465C31.2163 147.542 31.2163 147.629 31.2353 147.705C31.2353 147.773 31.2353 147.84 31.2353 147.898C31.2258 147.965 31.2258 148.032 31.2353 148.09V148.436L31.369 148.801C31.684 149.57 32.2854 150.185 33.049 150.511H33.87C34.1373 150.55 34.4141 150.55 34.6909 150.511C34.9582 150.55 35.2255 150.55 35.4928 150.511C35.6837 150.463 35.8746 150.396 36.056 150.319C36.2278 150.261 36.3901 150.185 36.5333 150.079C36.6955 149.973 36.8387 149.848 36.9628 149.714L37.2683 149.262C37.3637 149.108 37.4401 148.955 37.5069 148.782C37.5737 148.628 37.6978 148.503 37.8506 148.436H38.9102C38.9865 148.417 39.0724 148.417 39.1488 148.436C39.3015 148.561 39.3493 148.782 39.2538 148.955C39.1488 149.329 38.9961 149.685 38.8052 150.021C38.5379 150.463 38.1942 150.848 37.7933 151.174C37.3733 151.511 36.8865 151.77 36.371 151.933L35.9414 152.039H32.5145C32.4667 152.02 32.4095 152.02 32.3617 152.039H32.209C31.9608 151.933 31.7222 151.808 31.4931 151.674C31.0826 151.395 30.7199 151.049 30.4144 150.655C30.1089 150.233 29.8512 149.771 29.6603 149.291C29.5839 149.128 29.5266 148.945 29.4885 148.772C29.4503 148.599 29.393 148.426 29.3357 148.253V148.099C29.3357 148.032 29.3357 147.965 29.3357 147.907V147.542C29.3548 147.417 29.3548 147.283 29.3357 147.148V146.821C29.3262 146.745 29.3262 146.658 29.3357 146.581C29.3166 146.485 29.3166 146.389 29.3357 146.303V146.13C29.3453 146.053 29.3453 145.966 29.3357 145.889C29.3166 145.813 29.3166 145.726 29.3357 145.649C29.3357 145.409 29.3357 145.169 29.4885 144.929C29.5171 144.708 29.5744 144.487 29.6603 144.275C29.7367 144.112 29.813 143.948 29.8798 143.776C29.9467 143.603 30.023 143.439 30.1185 143.276C30.424 142.776 30.7867 142.325 31.2163 141.931C31.6744 141.527 32.1899 141.21 32.7436 140.979L33.2781 140.826L33.8604 140.691H34.4618C35.0059 140.662 35.5596 140.73 36.0751 140.883C36.5142 141.008 36.9246 141.2 37.3065 141.45C37.3733 141.469 37.4401 141.517 37.4783 141.585H37.631L37.9938 141.892C38.1179 142.007 38.2229 142.132 38.3183 142.257C38.5379 142.546 38.7383 142.843 38.9197 143.151C39.0152 143.314 39.0915 143.487 39.1584 143.67L39.3493 144.256C39.4161 144.448 39.4734 144.64 39.5211 144.842C39.5211 145.063 39.5211 145.255 39.6547 145.476C39.6643 145.582 39.6643 145.678 39.6547 145.784V146.11M37.4974 145.351C37.5547 145.284 37.5833 145.198 37.6024 145.111C37.6501 145.015 37.6501 144.9 37.6024 144.804C37.4401 144.121 37.0678 143.506 36.5428 143.045C36.266 142.776 35.9319 142.565 35.5691 142.44H34.9391C34.815 142.421 34.6814 142.421 34.5477 142.44H34.185C34.185 142.44 34.08 142.459 34.0323 142.44H33.2113C32.8295 142.584 32.4763 142.815 32.1995 143.112C31.9131 143.41 31.6744 143.747 31.4835 144.112L31.3499 144.371V144.736C31.3308 144.861 31.3308 144.996 31.3499 145.13C31.369 145.236 31.4167 145.323 31.5026 145.39C31.684 145.486 31.894 145.534 32.104 145.524H37.001C37.2206 145.553 37.4401 145.486 37.6024 145.351" fill="#D51B5D"/>
<path d="M45.4576 140.585C46.3645 140.547 47.2713 140.672 48.1304 140.951C48.8273 141.191 49.4191 141.681 49.7914 142.315C49.8964 142.469 49.9823 142.642 50.0491 142.815C50.0491 142.988 50.1541 143.161 50.221 143.382C50.2401 143.487 50.2401 143.603 50.221 143.708C50.221 143.785 50.221 143.872 50.221 143.948H49.8773C49.8105 143.929 49.7341 143.929 49.6578 143.948H49.2091C49.0755 143.968 48.9323 143.968 48.7986 143.948C48.6936 143.881 48.6173 143.766 48.5791 143.641C48.5314 143.516 48.4741 143.391 48.4073 143.276C48.2641 143.026 48.0732 142.805 47.8441 142.622C47.6818 142.507 47.51 142.421 47.3286 142.363L46.6986 142.19C46.6317 142.171 46.5554 142.171 46.479 142.19C46.4122 142.2 46.3358 142.2 46.2595 142.19C46.1544 142.161 46.0399 142.161 45.9349 142.19C45.8203 142.161 45.7058 142.161 45.5912 142.19H45.028C44.6939 142.257 44.3694 142.382 44.083 142.555C43.8062 142.747 43.6248 143.045 43.5675 143.382C43.5484 143.478 43.5484 143.583 43.5675 143.689V143.968C43.6344 144.15 43.7489 144.314 43.8921 144.448L44.3694 144.756C44.6176 144.909 44.8849 145.025 45.1712 145.082L46.059 145.323C46.2404 145.39 46.4313 145.428 46.6222 145.457C46.8227 145.476 47.0136 145.524 47.2045 145.592L48.1113 145.851C48.4073 145.937 48.7032 146.034 48.9991 146.158H49.4287C49.715 146.322 49.9728 146.514 50.2019 146.745C50.431 146.994 50.6123 147.283 50.7364 147.59C50.7555 147.734 50.7555 147.878 50.7364 148.023C50.7651 148.128 50.7651 148.244 50.7364 148.349V148.935C50.7173 149.031 50.7173 149.137 50.7364 149.243C50.7555 149.339 50.7555 149.445 50.7364 149.55C50.6982 149.714 50.6505 149.877 50.5837 150.031C50.536 150.165 50.4691 150.3 50.3928 150.425C50.1732 150.8 49.8582 151.117 49.4859 151.338C49.0946 151.587 48.6841 151.789 48.2545 151.943H47.004C46.8513 151.924 46.6986 151.924 46.5554 151.943H45.4767C45.3812 151.924 45.2858 151.924 45.1999 151.943C45.114 151.962 45.028 151.962 44.9421 151.943H43.9685C43.5484 151.808 43.1475 151.616 42.7848 151.376C42.4316 151.155 42.1261 150.857 41.897 150.511C41.7634 150.329 41.6488 150.127 41.5534 149.925C41.5534 149.704 41.4006 149.493 41.3147 149.233C41.2956 149.128 41.2956 149.012 41.3147 148.907C41.3052 148.81 41.3052 148.705 41.3147 148.599L41.5343 148.426H42.8898C42.9852 148.513 43.0521 148.628 43.0807 148.753C43.1189 148.887 43.1666 149.022 43.2334 149.147C43.3575 149.454 43.5675 149.714 43.8348 149.906C44.0066 150.04 44.2071 150.146 44.4171 150.213L45.1331 150.434H45.7153C45.849 150.454 45.9922 150.454 46.1258 150.434C46.269 150.463 46.4122 150.463 46.5554 150.434H47.3095C47.6245 150.511 47.9395 150.53 48.2545 150.502C48.5409 150.252 48.7318 149.906 48.7891 149.522C48.7986 149.435 48.7986 149.349 48.7891 149.262C48.7891 149.195 48.7891 149.128 48.7891 149.07C48.7223 148.839 48.6173 148.628 48.4645 148.436C48.3118 148.292 48.1495 148.157 47.9682 148.042C47.825 147.955 47.6722 147.878 47.5195 147.821L47.0422 147.648H46.9086C46.4026 147.484 45.8776 147.36 45.3526 147.283C44.8371 147.206 44.3312 147.071 43.8444 146.87L43.4148 146.716L43.0521 146.543C42.7752 146.379 42.5175 146.187 42.2789 145.976C42.0307 145.765 41.8493 145.495 41.7443 145.198C41.687 145.102 41.6488 145.005 41.6393 144.89C41.6488 144.784 41.6488 144.669 41.6393 144.563C41.6202 144.362 41.6202 144.16 41.6393 143.958V143.372C41.6488 143.305 41.6488 143.237 41.6393 143.18C41.6393 143.122 41.6393 143.064 41.6393 143.007C41.7825 142.69 41.9638 142.392 42.1739 142.113C42.4125 141.863 42.6798 141.652 42.9757 141.46C43.2048 141.325 43.4434 141.22 43.6916 141.133L44.5317 140.893H45.3335C45.3335 140.893 45.4385 140.912 45.4862 140.893" fill="#D51B5D"/>
<path d="M63.2033 146.12C63.2224 146.283 63.2224 146.456 63.2033 146.62C63.2033 146.754 63.1555 146.879 63.0696 146.985C62.9742 147.052 62.8596 147.1 62.7451 147.119H55.2803C55.1848 147.09 55.0893 147.09 55.0034 147.119C54.9271 147.158 54.8602 147.215 54.8125 147.292V147.465C54.7934 147.542 54.7934 147.629 54.8125 147.705C54.8125 147.773 54.8125 147.84 54.8125 147.898V148.09C54.8125 148.157 54.8125 148.33 54.9175 148.436C54.9366 148.57 54.9843 148.695 55.0512 148.801C55.3566 149.579 55.9485 150.194 56.7121 150.511H57.5331C58.0772 150.626 58.6308 150.626 59.1749 150.511C59.3659 150.463 59.5568 150.396 59.7381 150.319C59.91 150.261 60.0627 150.184 60.2154 150.079C60.3682 149.973 60.5018 149.848 60.6259 149.714C60.7404 149.57 60.8455 149.416 60.9314 149.262C61.0268 149.118 61.1127 148.955 61.17 148.782C61.2464 148.628 61.3609 148.513 61.5137 148.436H62.5732C62.6496 148.416 62.7355 148.416 62.8119 148.436C62.936 148.589 62.936 148.801 62.8119 148.955C62.7069 149.329 62.5541 149.685 62.3632 150.021C62.096 150.463 61.7523 150.847 61.3514 151.174C60.9314 151.51 60.4541 151.77 59.9481 151.933L59.4995 152.039H55.8148C55.5762 151.933 55.3471 151.818 55.1275 151.674C54.7075 151.395 54.3352 151.049 54.0298 150.655C53.7243 150.233 53.4666 149.771 53.2756 149.291C53.1993 149.127 53.142 148.945 53.1038 148.772C53.0752 148.599 53.0274 148.426 52.9702 148.253C52.9702 148.205 52.9702 148.147 52.9702 148.099V147.907C52.9606 147.782 52.9606 147.657 52.9702 147.542C52.9893 147.417 52.9893 147.283 52.9702 147.148V146.13C52.9893 146.053 52.9893 145.966 52.9702 145.889V145.649C52.9702 145.409 52.9702 145.169 53.1229 144.928C53.1611 144.707 53.2279 144.486 53.3138 144.275L53.5047 143.775C53.5047 143.602 53.6575 143.43 53.7434 143.276C54.0488 142.776 54.4116 142.325 54.8411 141.931C55.2993 141.527 55.8148 141.21 56.3685 140.979L56.903 140.826L57.4853 140.691H57.9817M58.1154 140.691C59.1081 140.643 60.1009 140.912 60.9409 141.45C61.0173 141.469 61.0745 141.517 61.1127 141.585H61.2846L61.6473 141.892C61.7523 142.007 61.8573 142.132 61.9528 142.257C62.1723 142.546 62.3728 142.843 62.5541 143.151C62.6592 143.314 62.7355 143.487 62.7928 143.67L62.9837 144.256C63.0601 144.448 63.1173 144.64 63.1555 144.842C63.1555 145.063 63.1555 145.255 63.3083 145.476C63.461 145.697 63.3083 145.668 63.3083 145.784V146.11M61.1509 145.351C61.1986 145.274 61.2273 145.198 61.2559 145.111C61.275 145.015 61.275 144.909 61.2559 144.804C61.17 144.486 61.0364 144.179 60.8645 143.891C60.6832 143.574 60.4541 143.295 60.1963 143.045C59.91 142.786 59.5854 142.574 59.2227 142.44H58.5736C58.4495 142.421 58.3254 142.421 58.2108 142.44H57.8194C57.8194 142.44 57.7144 142.459 57.6667 142.44H56.8458C56.4639 142.594 56.1203 142.815 55.8339 143.112C55.5475 143.401 55.3184 143.737 55.1466 144.112C55.0989 144.198 55.0512 144.285 55.013 144.371L54.8793 144.736C54.8698 144.871 54.8698 144.996 54.8793 145.13C54.8984 145.236 54.9652 145.332 55.0512 145.39C55.2325 145.495 55.4425 145.543 55.6525 145.524H60.5304C60.75 145.543 60.9791 145.486 61.1605 145.351" fill="#D51B5D"/>
<path d="M75.6121 151.462C75.6789 151.654 75.6789 151.856 75.6121 152.048C75.5262 152.192 75.4116 152.308 75.2684 152.394H75.0298C74.9439 152.375 74.858 152.375 74.772 152.394C74.457 152.481 74.1325 152.481 73.827 152.394C73.5693 152.327 73.3306 152.183 73.1588 151.981C73.0824 151.866 73.0156 151.741 72.9679 151.616C72.9202 151.491 72.8438 151.385 72.7483 151.289C72.7102 151.289 72.672 151.289 72.6433 151.289H72.5097C72.3379 151.328 72.1851 151.404 72.061 151.529L71.6506 151.837C71.4501 151.962 71.2401 152.068 71.0205 152.164L70.3332 152.423H69.856C69.6937 152.404 69.5219 152.404 69.3596 152.423H68.9968C68.8441 152.442 68.6914 152.442 68.5482 152.423H66.9922C66.6008 152.26 66.2476 152.039 65.9326 151.75C65.6272 151.472 65.3981 151.116 65.2644 150.732C65.1212 150.357 65.0449 149.963 65.0449 149.56V149.079C65.0544 149.012 65.0544 148.935 65.0449 148.858C65.0353 148.772 65.0353 148.685 65.0449 148.599C65.0926 148.426 65.1499 148.262 65.2167 148.099C65.2644 147.945 65.3408 147.801 65.4363 147.667C65.6844 147.244 66.0663 146.908 66.5149 146.715C67.0018 146.494 67.4981 146.302 68.0041 146.149L68.6532 146.014L69.3214 145.908H70.5719L71.6028 145.668C71.9178 145.61 72.1947 145.428 72.376 145.168C72.4715 145.034 72.5479 144.88 72.5956 144.717C72.6624 144.515 72.6624 144.304 72.5956 144.111C72.5288 143.804 72.3951 143.516 72.2042 143.266C72.0133 143.045 71.7651 142.882 71.4883 142.785C71.2878 142.709 71.0778 142.661 70.8583 142.632C70.6005 142.613 70.3428 142.613 70.0851 142.632C69.8369 142.613 69.5791 142.613 69.3309 142.632C69.1114 142.641 68.8918 142.689 68.6818 142.766C68.4241 142.862 68.1759 142.987 67.9468 143.131C67.8322 143.227 67.7272 143.352 67.6413 143.477C67.5363 143.621 67.4504 143.775 67.3836 143.929L67.25 144.294C67.2213 144.429 67.145 144.544 67.0304 144.621C66.9349 144.64 66.8395 144.64 66.7536 144.621H65.8945C65.799 144.64 65.694 144.64 65.589 144.621C65.5222 144.563 65.4744 144.486 65.4553 144.4C65.4363 144.284 65.4363 144.169 65.4553 144.054C65.4935 143.871 65.5413 143.689 65.6081 143.516C65.6558 143.343 65.7131 143.179 65.7799 143.016C66.0376 142.536 66.4004 142.122 66.8395 141.796C67.3359 141.488 67.8704 141.248 68.4336 141.104H69.646C69.7223 141.123 69.8082 141.123 69.8846 141.104C70.7914 141.075 71.7078 141.19 72.5765 141.45C73.302 141.68 73.8843 142.209 74.1897 142.901C74.3234 143.227 74.3902 143.573 74.4093 143.919V150.059C74.3998 150.251 74.3998 150.453 74.4093 150.645C74.4093 150.809 74.457 150.982 74.5429 151.126C74.6098 151.232 74.7052 151.299 74.8198 151.347L75.2111 151.481C75.3257 151.51 75.4116 151.577 75.4689 151.674C75.4689 151.722 75.4689 151.779 75.4689 151.827C75.4689 151.885 75.4689 151.943 75.4689 152M72.3188 149.521C72.4142 149.291 72.4524 149.05 72.4524 148.801V147.955C72.462 147.801 72.462 147.647 72.4524 147.503C72.4524 147.378 72.3856 147.263 72.2806 147.196C72.1851 147.177 72.0801 147.177 71.9751 147.196H70.4669C70.2282 147.234 69.9896 147.234 69.751 147.196C69.5123 147.157 69.2737 147.157 69.035 147.196H68.3859C68.1568 147.263 67.9277 147.35 67.7177 147.455C67.5363 147.571 67.355 147.715 67.2022 147.868C67.059 148.041 66.9349 148.243 66.8586 148.455C66.8204 148.733 66.8204 149.022 66.8586 149.3C66.8395 149.435 66.8395 149.579 66.8586 149.713C66.9063 149.829 66.9636 149.944 67.0495 150.04C67.164 150.213 67.3168 150.357 67.4981 150.453C67.6986 150.569 67.9086 150.665 68.1282 150.732H68.5577C68.6914 150.741 68.8155 150.741 68.9491 150.732C69.0732 150.751 69.2068 150.751 69.3405 150.732C69.4264 150.713 69.5123 150.713 69.5982 150.732C69.6841 150.751 69.77 150.751 69.856 150.732H70.5242C70.9251 150.578 71.2974 150.357 71.6219 150.078C71.9369 149.809 72.1756 149.454 72.3092 149.06" fill="#D51B5D"/>
<path d="M83.0481 140.585C83.3917 140.585 83.5827 140.672 83.6304 140.845C83.659 141.094 83.659 141.335 83.6304 141.585V142.017C83.6304 142.132 83.5922 142.248 83.5254 142.344C83.4299 142.459 83.2867 142.526 83.134 142.536C82.9813 142.517 82.819 142.517 82.6567 142.536L82.0744 142.67C81.8931 142.709 81.7212 142.766 81.559 142.843C81.1485 143.016 80.7953 143.295 80.528 143.65C80.2607 143.996 80.0221 144.381 79.8407 144.775C79.7739 144.938 79.7357 145.101 79.7071 145.274C79.6784 145.447 79.6498 145.62 79.6021 145.793C79.5925 145.87 79.5925 145.956 79.6021 146.033C79.6212 146.101 79.6212 146.177 79.6021 146.254C79.5734 146.456 79.5734 146.658 79.6021 146.86V151.27C79.5925 151.405 79.5925 151.549 79.6021 151.683C79.6498 151.779 79.6498 151.895 79.6021 151.991C79.5162 152.096 79.3921 152.173 79.2584 152.183H78.1606C78.1034 152.164 78.0461 152.125 78.0079 152.077C77.9315 151.972 77.8934 151.837 77.9029 151.712C77.8934 151.549 77.8934 151.395 77.9029 151.232V141.786C77.8934 141.633 77.8934 141.479 77.9029 141.335C77.9029 141.21 77.9411 141.085 78.0079 140.989C78.0747 140.912 78.1511 140.864 78.2466 140.835H79.3061C79.4207 140.873 79.5162 140.97 79.5448 141.094C79.5639 141.229 79.5639 141.373 79.5448 141.508V141.94C79.5162 142.075 79.5162 142.219 79.5448 142.353C79.7071 142.353 79.8503 142.276 79.9362 142.132L80.213 141.806L80.3466 141.652C80.5089 141.469 80.6903 141.296 80.8812 141.152C81.0912 140.998 81.3203 140.854 81.5494 140.739L81.9599 140.585L82.4372 140.451H83.0195" fill="#D51B5D"/>
<path d="M90.018 140.585C90.9439 140.537 91.8794 140.701 92.7385 141.066C93.4545 141.383 94.0654 141.902 94.4854 142.565C94.6859 142.911 94.8481 143.276 94.9627 143.651V143.929C94.9818 144.035 94.9818 144.15 94.9627 144.256C94.9054 144.333 94.8291 144.4 94.7431 144.448C94.705 144.467 94.6572 144.467 94.6095 144.448H94.4568C94.39 144.467 94.3231 144.467 94.2659 144.448H93.6358C93.5117 144.487 93.3781 144.487 93.2445 144.448C93.1204 144.352 93.044 144.208 93.0058 144.054C92.9581 143.91 92.9008 143.775 92.834 143.641C92.624 143.266 92.3281 142.959 91.9749 142.728L91.6121 142.536L91.1826 142.401C90.9153 142.373 90.648 142.373 90.3807 142.401C90.1039 142.353 89.8175 142.353 89.5407 142.401H88.9584C88.5766 142.555 88.2329 142.786 87.9465 143.074C87.6602 143.362 87.4215 143.699 87.2592 144.073L87.1065 144.467L86.9729 144.919L86.8392 145.524C86.8201 145.601 86.8201 145.688 86.8392 145.764C86.8488 145.851 86.8488 145.937 86.8392 146.024V146.197C86.8392 146.293 86.8392 146.389 86.8392 146.476C86.8201 146.572 86.8201 146.668 86.8392 146.754C86.8583 146.821 86.8583 146.898 86.8392 146.975C86.8201 147.052 86.8201 147.139 86.8392 147.215C86.8583 147.311 86.8583 147.417 86.8392 147.523V148.282C86.9824 148.705 87.1733 149.118 87.4024 149.502C87.6315 149.867 87.9465 150.175 88.3093 150.415L88.7007 150.607L89.1493 150.78H90.3139C90.4094 150.761 90.5048 150.761 90.5907 150.78C90.6862 150.799 90.7912 150.799 90.8962 150.78C91.2494 150.684 91.5835 150.53 91.889 150.329C92.1753 150.146 92.4235 149.906 92.6049 149.608L92.7958 149.243C92.7958 149.108 92.7958 148.964 92.9676 148.83C93.1395 148.695 92.9676 148.609 93.0726 148.484C93.1967 148.349 93.3686 148.272 93.5499 148.292C93.6454 148.272 93.7408 148.272 93.8268 148.292H94.6859C94.7813 148.263 94.8863 148.263 94.9913 148.292C95.0868 148.34 95.1536 148.445 95.1632 148.551C95.1823 148.676 95.1823 148.801 95.1632 148.916C95.1632 149.137 95.0104 149.349 94.9436 149.55C94.8768 149.752 94.8004 149.944 94.705 150.136C94.4854 150.578 94.199 150.982 93.8649 151.328C93.5213 151.664 93.1204 151.943 92.6813 152.135L92.2899 152.289L91.8794 152.423C91.7171 152.443 91.5453 152.443 91.383 152.423C91.2207 152.414 91.068 152.414 90.9057 152.423H90.7339C90.6766 152.404 90.6194 152.404 90.5621 152.423H90.0275C89.9321 152.443 89.8271 152.443 89.7221 152.423H89.0729L88.5384 152.27C88.357 152.231 88.1852 152.164 88.0229 152.077C87.5361 151.885 87.097 151.607 86.7056 151.251C86.3333 150.896 86.0183 150.482 85.7606 150.031C85.6746 149.915 85.6078 149.781 85.5696 149.637L85.3787 149.204C85.3214 149.031 85.2642 148.858 85.226 148.686C85.1305 148.551 85.0351 148.416 84.9205 148.292C84.911 148.224 84.911 148.157 84.9205 148.099C84.9205 148.042 84.9205 147.984 84.9205 147.926C84.9014 147.83 84.9014 147.734 84.9205 147.648C84.9301 147.552 84.9301 147.456 84.9205 147.369V147.129C84.8919 146.927 84.8919 146.725 84.9205 146.524C84.9205 146.456 84.9205 146.389 84.9205 146.331C84.9014 146.264 84.9014 146.197 84.9205 146.139C84.9301 146.034 84.9301 145.937 84.9205 145.832C84.9014 145.736 84.9014 145.64 84.9205 145.553C84.9205 145.294 85.0255 145.053 85.0733 144.794C85.121 144.554 85.1783 144.314 85.2642 144.073C85.5315 143.391 85.9133 142.767 86.4097 142.228C86.9156 141.71 87.5265 141.296 88.2043 141.037L88.7388 140.883H89.9703" fill="#D51B5D"/>
<path d="M98.304 136.502H98.9532C99.125 136.483 99.3064 136.55 99.4305 136.675C99.5259 136.809 99.5736 136.973 99.5641 137.126V140.903C99.5545 140.97 99.5545 141.037 99.5641 141.095V141.402C99.5832 141.508 99.5832 141.623 99.5641 141.729C99.5641 141.835 99.5641 141.883 99.8027 141.883C99.8027 141.883 99.8791 141.902 99.9077 141.883L100.146 141.71L100.385 141.489L100.948 141.162L101.55 140.903H102.285C102.351 140.883 102.418 140.883 102.476 140.903H103.812C103.927 140.922 104.041 140.922 104.156 140.903H104.872L105.32 141.143L105.769 141.422C105.922 141.556 106.055 141.71 106.179 141.873L106.418 142.286C106.418 142.421 106.571 142.565 106.657 142.719C106.666 142.824 106.666 142.94 106.657 143.045V143.372C106.666 143.439 106.666 143.516 106.657 143.593C106.647 143.67 106.647 143.756 106.657 143.833C106.676 143.91 106.676 143.997 106.657 144.074C106.657 144.15 106.657 144.218 106.657 144.295V144.516C106.676 144.592 106.676 144.679 106.657 144.756V151.011C106.676 151.165 106.676 151.328 106.657 151.491C106.666 151.636 106.666 151.78 106.657 151.924C106.638 152.02 106.599 152.116 106.523 152.183C106.351 152.308 106.151 152.356 105.941 152.337H105.377C105.215 152.337 105.062 152.27 104.967 152.145C104.9 152.039 104.862 151.924 104.862 151.799V144.852C104.872 144.458 104.824 144.064 104.709 143.68C104.557 143.218 104.242 142.824 103.822 142.575L103.459 142.382L103.01 142.277H102.533C102.466 142.248 102.39 142.248 102.313 142.277C102.246 142.286 102.18 142.286 102.122 142.277H101.521C101.387 142.296 101.254 142.344 101.13 142.411C100.671 142.594 100.261 142.882 99.9459 143.257C99.6309 143.651 99.4114 144.112 99.2777 144.602C99.2586 144.708 99.2586 144.823 99.2777 144.929C99.2873 145.054 99.2873 145.179 99.2777 145.294V145.573C99.2586 145.64 99.2586 145.717 99.2777 145.794V151.347C99.2873 151.482 99.2873 151.626 99.2777 151.761C99.3064 151.857 99.3064 151.953 99.2777 152.039C99.2395 152.116 99.1632 152.164 99.0868 152.174H98.0272C97.9031 152.183 97.779 152.126 97.7027 152.02C97.6263 151.895 97.5786 151.751 97.569 151.607V137.578C97.5786 137.405 97.5786 137.232 97.569 137.059C97.5499 136.905 97.5881 136.752 97.674 136.627C97.7504 136.521 97.8649 136.435 97.9986 136.406" fill="#D51B5D"/>
<path d="M110.656 138.625C110.532 138.5 110.465 138.327 110.484 138.145V137.107C110.456 136.992 110.456 136.876 110.484 136.761C110.57 136.636 110.704 136.54 110.847 136.501H111.754C111.935 136.501 112.107 136.598 112.183 136.761C112.212 136.867 112.212 136.982 112.183 137.088V138.241C112.193 138.442 112.069 138.625 111.878 138.692C111.802 138.711 111.716 138.711 111.639 138.692H110.923C110.799 138.74 110.656 138.74 110.532 138.692M112.174 151.28C112.164 151.424 112.164 151.568 112.174 151.712C112.174 151.847 112.145 151.972 112.069 152.077C112.031 152.164 111.964 152.221 111.878 152.25H110.733C110.599 152.231 110.484 152.144 110.408 152.029C110.379 151.923 110.379 151.808 110.408 151.702V141.412C110.408 141.287 110.437 141.162 110.513 141.066C110.551 140.989 110.618 140.931 110.704 140.912H111.716C111.878 140.893 112.04 140.97 112.126 141.104C112.193 141.2 112.231 141.315 112.231 141.431V151.27H112.164L112.174 151.28Z" fill="#D51B5D"/>
<path d="M120.946 140.624C121.681 140.585 122.425 140.72 123.103 141.018C123.666 141.296 124.134 141.729 124.439 142.276C124.525 142.43 124.592 142.593 124.659 142.757L124.793 143.276C124.879 143.573 124.926 143.881 124.945 144.188V151.77C124.964 151.981 124.84 152.183 124.64 152.269H123.752C123.599 152.279 123.456 152.202 123.389 152.077C123.304 151.972 123.265 151.827 123.284 151.683V144.477C123.275 144.14 123.208 143.794 123.094 143.477C122.979 143.189 122.798 142.949 122.559 142.757C122.311 142.565 122.034 142.411 121.738 142.324H120.23L119.695 142.459L119.218 142.68H119.065C119.008 142.689 118.951 142.689 118.893 142.68C118.359 143.103 117.958 143.689 117.777 144.352C117.767 144.477 117.767 144.602 117.777 144.717C117.796 144.842 117.796 144.967 117.777 145.082C117.757 145.149 117.757 145.217 117.777 145.274C117.805 145.332 117.805 145.409 117.777 145.466V146.12C117.777 146.12 117.757 146.225 117.777 146.274V151.722C117.777 151.856 117.738 152 117.672 152.116C117.595 152.25 117.442 152.327 117.28 152.308H116.392C116.306 152.327 116.221 152.327 116.135 152.308C116.001 152.212 115.925 152.039 115.944 151.875V141.536C115.915 141.44 115.915 141.335 115.944 141.229C116.001 141.133 116.077 141.066 116.182 141.037H117.347C117.49 141.114 117.576 141.267 117.567 141.431C117.528 141.604 117.528 141.777 117.567 141.95C117.595 142.046 117.652 142.132 117.738 142.19C117.91 142.19 118.072 142.113 118.168 141.969C118.273 141.844 118.387 141.729 118.512 141.623L119.142 141.21C119.371 141.075 119.619 140.96 119.877 140.883H120.268C120.402 140.902 120.545 140.902 120.678 140.883H121.127L120.974 140.624H120.946Z" fill="#D51B5D"/>
<path d="M137.851 141.018C137.966 141.085 138.033 141.21 138.023 141.344V151.962C138.023 152.029 138.023 152.106 138.023 152.183C138.052 152.25 138.052 152.327 138.023 152.404C138.014 152.558 138.014 152.712 138.023 152.856C138.033 153.009 138.033 153.163 138.023 153.307C137.975 153.461 137.937 153.605 137.918 153.759C137.87 153.913 137.813 154.066 137.746 154.211C137.603 154.576 137.412 154.912 137.183 155.229C136.964 155.537 136.696 155.806 136.381 156.007C136.133 156.18 135.866 156.324 135.579 156.44L134.673 156.766H133.661C133.594 156.786 133.518 156.786 133.441 156.766C133.374 156.747 133.308 156.747 133.25 156.766H132.773C132.62 156.786 132.468 156.786 132.324 156.766H130.625C130.205 156.603 129.804 156.382 129.441 156.113C129.107 155.834 128.821 155.498 128.601 155.114C128.601 155.114 128.601 155.027 128.601 154.979C128.601 154.979 128.601 154.701 128.449 154.48C128.391 154.307 128.449 154.124 128.582 153.999C128.706 153.961 128.831 153.961 128.945 153.999H129.89C130.014 154.028 130.119 154.105 130.167 154.22L130.387 154.566L130.558 154.825C130.616 154.912 130.692 154.998 130.778 155.066C131.169 155.354 131.618 155.565 132.095 155.7H132.372C132.468 155.69 132.563 155.69 132.649 155.7H134.138C134.272 155.681 134.405 155.633 134.529 155.565C134.921 155.412 135.284 155.162 135.56 154.845C135.847 154.528 136.066 154.153 136.229 153.759C136.295 153.624 136.334 153.471 136.362 153.327C136.353 153.173 136.353 153.019 136.362 152.875C136.362 152.798 136.362 152.731 136.362 152.654C136.353 152.577 136.353 152.491 136.362 152.414V152.193C136.381 152.068 136.381 151.943 136.362 151.828C136.362 151.76 136.362 151.693 136.362 151.635C136.381 151.578 136.381 151.52 136.362 151.462C136.238 151.453 136.124 151.501 136.038 151.597C135.971 151.683 135.885 151.751 135.799 151.818L135.455 152.097C135.331 152.202 135.198 152.289 135.045 152.356C134.806 152.51 134.539 152.615 134.272 152.683C133.957 152.76 133.642 152.817 133.327 152.856C132.993 152.885 132.649 152.885 132.315 152.856C132 152.827 131.685 152.76 131.389 152.664C130.081 152.27 129.012 151.309 128.477 150.04C128.401 149.906 128.344 149.752 128.306 149.608L128.134 149.156C128.124 149.089 128.124 149.022 128.134 148.964C128.153 148.897 128.153 148.83 128.134 148.772C128.124 148.666 128.124 148.551 128.134 148.445C128.143 148.34 128.143 148.224 128.134 148.119C128.124 148.061 128.124 148.003 128.134 147.946C128.143 147.898 128.143 147.84 128.134 147.792V147.619C128.124 147.552 128.124 147.484 128.134 147.427C128.115 147.244 128.115 147.062 128.134 146.889C128.143 146.802 128.143 146.716 128.134 146.629V146.37C128.134 146.312 128.134 146.254 128.134 146.197V146.005C128.153 145.841 128.153 145.688 128.134 145.524C128.162 145.361 128.201 145.207 128.239 145.044C128.22 144.679 128.162 144.314 128.067 143.958C128.115 143.785 128.181 143.622 128.258 143.458C128.353 143.228 128.468 143.016 128.601 142.805L129.031 142.219C129.117 142.046 129.251 141.902 129.422 141.806L129.661 141.633L129.919 141.46C130.11 141.335 130.31 141.229 130.52 141.152C130.74 141.047 130.978 140.96 131.207 140.893H132.563C132.993 140.874 133.422 140.922 133.833 141.027C134.186 141.123 134.52 141.277 134.825 141.479C134.93 141.527 135.035 141.594 135.131 141.671L135.389 141.892L135.608 142.084C135.713 142.123 135.828 142.123 135.933 142.084C135.952 141.969 135.952 141.854 135.933 141.738C135.942 141.517 136.104 141.335 136.324 141.287C136.467 141.268 136.61 141.268 136.754 141.287H137.164C137.269 141.316 137.374 141.354 137.469 141.421M135.828 147.004V146.178C135.809 146.053 135.809 145.918 135.828 145.784V145.419C135.818 145.313 135.818 145.198 135.828 145.092C135.799 144.977 135.761 144.871 135.723 144.765C135.57 144.362 135.36 143.987 135.093 143.66C134.835 143.333 134.501 143.084 134.119 142.92L133.728 142.767H133.317C133.193 142.747 133.059 142.747 132.926 142.767H132.363L131.647 142.988C131.179 143.18 130.768 143.506 130.482 143.92C130.196 144.362 129.967 144.842 129.814 145.351C129.814 145.467 129.814 145.582 129.814 145.697V146.043C129.814 146.043 129.795 146.149 129.814 146.197C129.823 146.245 129.823 146.303 129.814 146.351V147.35C129.804 147.513 129.804 147.667 129.814 147.83C129.814 147.869 129.814 147.907 129.814 147.936C129.823 148.071 129.823 148.195 129.814 148.33C129.804 148.464 129.804 148.589 129.814 148.724C129.938 149.089 130.091 149.445 130.262 149.791C130.434 150.108 130.663 150.377 130.95 150.598H131.341L131.704 150.771L132.152 150.905H132.343C132.41 150.886 132.487 150.886 132.563 150.905H132.993C132.993 150.905 133.098 150.886 133.145 150.905H134.052C134.52 150.703 134.93 150.377 135.236 149.973C135.532 149.55 135.77 149.079 135.923 148.58C135.933 148.445 135.933 148.301 135.923 148.167C135.914 148.032 135.914 147.888 135.923 147.753V147.58C135.914 147.532 135.914 147.475 135.923 147.427C135.942 147.35 135.942 147.263 135.923 147.187C135.894 147.1 135.894 147.014 135.923 146.927" fill="#D51B5D"/>
<path d="M157.782 151.462C157.849 151.654 157.849 151.856 157.782 152.048C157.696 152.192 157.563 152.317 157.42 152.394H157.2C157.114 152.375 157.028 152.375 156.942 152.394C156.627 152.481 156.303 152.481 155.997 152.394C155.739 152.327 155.501 152.183 155.329 151.981C155.253 151.866 155.186 151.741 155.138 151.616C155.09 151.491 155.014 151.385 154.919 151.289C154.88 151.289 154.842 151.289 154.814 151.289H154.68C154.508 151.328 154.355 151.404 154.231 151.529L153.821 151.837C153.62 151.962 153.41 152.068 153.191 152.164L152.503 152.423H152.026C151.864 152.404 151.692 152.404 151.53 152.423H151.167C151.014 152.442 150.862 152.442 150.718 152.423H149.143C148.752 152.26 148.399 152.039 148.084 151.75C147.778 151.472 147.549 151.116 147.416 150.732C147.263 150.357 147.186 149.963 147.196 149.56V149.079C147.206 149.012 147.206 148.935 147.196 148.858V148.599L147.387 148.099C147.435 147.945 147.511 147.801 147.606 147.667C147.855 147.244 148.236 146.908 148.685 146.715C149.172 146.494 149.668 146.302 150.174 146.149L150.823 146.014L151.492 145.908H152.742L153.773 145.668C154.088 145.61 154.365 145.428 154.546 145.168C154.642 145.034 154.718 144.88 154.766 144.717C154.833 144.515 154.833 144.304 154.766 144.111C154.699 143.804 154.565 143.516 154.374 143.266C154.183 143.045 153.935 142.882 153.658 142.785C153.458 142.709 153.248 142.661 153.028 142.632C152.771 142.613 152.513 142.613 152.255 142.632C152.007 142.613 151.749 142.613 151.501 142.632C151.282 142.641 151.062 142.689 150.852 142.766C150.594 142.862 150.346 142.978 150.117 143.131C150.002 143.227 149.897 143.352 149.812 143.477C149.707 143.621 149.621 143.775 149.554 143.929L149.42 144.294C149.392 144.429 149.315 144.544 149.201 144.621C149.105 144.64 149.01 144.64 148.924 144.621H148.065C147.969 144.64 147.864 144.64 147.759 144.621C147.692 144.563 147.645 144.486 147.626 144.4C147.578 144.284 147.578 144.16 147.626 144.054C147.664 143.871 147.711 143.689 147.778 143.516C147.826 143.343 147.883 143.179 147.95 143.016C148.198 142.536 148.561 142.113 149.01 141.796C149.506 141.488 150.041 141.248 150.604 141.104H151.768C151.845 141.123 151.931 141.123 152.007 141.104C152.914 141.075 153.83 141.19 154.699 141.45C155.415 141.671 156.007 142.209 156.293 142.901C156.446 143.218 156.522 143.564 156.532 143.919V150.059C156.522 150.251 156.522 150.453 156.532 150.645C156.532 150.818 156.57 150.982 156.665 151.126C156.732 151.232 156.828 151.299 156.942 151.347C157.066 151.414 157.2 151.453 157.334 151.481C157.448 151.51 157.534 151.577 157.591 151.674C157.591 151.722 157.591 151.779 157.591 151.827C157.591 151.885 157.591 151.943 157.591 152M154.441 149.521C154.537 149.291 154.575 149.05 154.575 148.801V147.955C154.584 147.801 154.584 147.647 154.575 147.503C154.575 147.378 154.508 147.263 154.403 147.196C154.298 147.177 154.183 147.177 154.078 147.196C154.031 147.215 153.973 147.215 153.926 147.196H152.589C152.351 147.234 152.112 147.234 151.873 147.196C151.635 147.157 151.396 147.157 151.157 147.196H150.508C150.279 147.263 150.05 147.35 149.84 147.455C149.659 147.571 149.477 147.715 149.325 147.868C149.182 148.041 149.057 148.243 148.981 148.455C148.943 148.733 148.943 149.022 148.981 149.3C148.962 149.435 148.962 149.579 148.981 149.713C149.029 149.829 149.086 149.944 149.172 150.04C149.287 150.213 149.439 150.357 149.621 150.453C149.821 150.569 150.031 150.665 150.251 150.732H150.68C150.814 150.741 150.938 150.741 151.072 150.732C151.196 150.751 151.329 150.751 151.463 150.732C151.549 150.713 151.635 150.713 151.721 150.732C151.807 150.751 151.893 150.751 151.978 150.732H152.647C153.048 150.578 153.42 150.357 153.744 150.078C154.059 149.809 154.298 149.454 154.432 149.06" fill="#D51B5D"/>
<path d="M170.984 140.585C171.91 140.547 172.836 140.71 173.704 141.066C174.42 141.373 175.022 141.892 175.432 142.564C175.652 142.901 175.814 143.266 175.928 143.65V143.929C175.938 144.035 175.938 144.15 175.928 144.256C175.871 144.333 175.795 144.4 175.709 144.448C175.661 144.467 175.604 144.467 175.556 144.448H175.508C175.451 144.467 175.394 144.467 175.337 144.448H174.707C174.583 144.486 174.449 144.486 174.315 144.448C174.191 144.352 174.115 144.208 174.077 144.054C174.029 143.91 173.972 143.775 173.905 143.641C173.695 143.276 173.399 142.958 173.046 142.728L172.654 142.536L172.244 142.401C171.967 142.372 171.7 142.372 171.423 142.401C171.146 142.353 170.86 142.353 170.583 142.401H170.02C169.638 142.555 169.294 142.785 169.008 143.074C168.712 143.352 168.473 143.698 168.32 144.073C168.263 144.198 168.206 144.333 168.168 144.467L168.034 144.919L167.9 145.524C167.891 145.601 167.891 145.687 167.9 145.764C167.92 145.851 167.92 145.937 167.9 146.024V146.197C167.9 146.293 167.9 146.389 167.9 146.475V146.975C167.881 147.052 167.881 147.138 167.9 147.215V148.282C168.034 148.714 168.225 149.118 168.464 149.502C168.693 149.858 168.998 150.175 169.351 150.415L169.762 150.607L170.211 150.78H171.356C171.452 150.761 171.557 150.761 171.662 150.78C171.767 150.799 171.862 150.799 171.967 150.78C172.32 150.684 172.654 150.53 172.96 150.328C173.246 150.146 173.494 149.906 173.676 149.608L173.867 149.243C173.867 149.108 173.972 148.964 174.038 148.829C174.038 148.714 174.038 148.599 174.038 148.483C174.067 148.378 174.143 148.282 174.229 148.224C174.325 148.195 174.42 148.195 174.506 148.224H175.499C175.594 148.195 175.699 148.195 175.804 148.224C175.89 148.282 175.948 148.378 175.957 148.483C175.976 148.608 175.976 148.733 175.957 148.849C175.957 149.07 175.804 149.281 175.738 149.483C175.68 149.685 175.594 149.886 175.48 150.069C175.27 150.511 174.993 150.914 174.659 151.26C174.315 151.606 173.905 151.875 173.447 152.068L173.084 152.221L172.673 152.356C172.511 152.375 172.339 152.375 172.177 152.356C172.015 152.346 171.862 152.346 171.7 152.356H171.509C171.452 152.337 171.394 152.337 171.337 152.356H170.802C170.707 152.375 170.602 152.375 170.497 152.356H169.867L169.304 152.202C169.132 152.164 168.96 152.096 168.807 152.01C168.321 151.818 167.872 151.539 167.49 151.184C167.118 150.828 166.803 150.415 166.545 149.963C166.459 149.848 166.383 149.713 166.325 149.569C166.278 149.416 166.22 149.271 166.154 149.137C166.087 148.974 166.03 148.791 166.001 148.618C165.972 148.445 165.944 148.272 165.896 148.099C165.886 148.032 165.886 147.965 165.896 147.907C165.896 147.849 165.896 147.792 165.896 147.734C165.886 147.638 165.886 147.542 165.896 147.455C165.915 147.359 165.915 147.263 165.896 147.177V146.936C165.867 146.735 165.867 146.533 165.896 146.331V146.139C165.886 146.072 165.886 146.004 165.896 145.947C165.915 145.851 165.915 145.745 165.896 145.639C165.886 145.543 165.886 145.447 165.896 145.361C165.896 145.101 166.001 144.861 166.049 144.602C166.096 144.361 166.154 144.121 166.24 143.881C166.507 143.208 166.879 142.584 167.356 142.036C167.872 141.517 168.492 141.114 169.17 140.845L169.705 140.691H170.936" fill="#D51B5D"/>
<path d="M179.272 140.845H179.921C180.093 140.826 180.264 140.902 180.369 141.037C180.455 141.171 180.493 141.316 180.503 141.469V148.464C180.503 148.772 180.541 149.079 180.608 149.377C180.828 150.011 181.314 150.521 181.944 150.771C182.317 150.905 182.718 150.953 183.109 150.924C183.481 150.895 183.854 150.809 184.207 150.684C184.636 150.492 185.037 150.232 185.371 149.906C185.677 149.531 185.906 149.108 186.04 148.647C186.049 148.532 186.049 148.416 186.04 148.301C186.02 148.176 186.02 148.042 186.04 147.907C186.059 147.84 186.059 147.773 186.04 147.715C186.03 147.648 186.03 147.58 186.04 147.523V147.042C186.059 146.917 186.059 146.783 186.04 146.648C186.03 146.504 186.03 146.36 186.04 146.216V142.132C186.049 141.94 186.049 141.758 186.04 141.565C186.04 141.402 186.068 141.239 186.145 141.085C186.192 141.008 186.269 140.95 186.364 140.931H187.462C187.596 140.95 187.71 141.037 187.786 141.152C187.863 141.239 187.901 141.344 187.891 141.46V151.386C187.901 151.549 187.901 151.722 187.891 151.885C187.891 152.01 187.844 152.135 187.739 152.212C187.643 152.231 187.548 152.231 187.462 152.212H186.689C186.593 152.241 186.498 152.241 186.412 152.212C186.326 152.135 186.259 152.039 186.221 151.933C186.211 151.856 186.211 151.77 186.221 151.693V151.386C186.23 151.309 186.23 151.222 186.221 151.145C186.154 151.116 186.087 151.116 186.03 151.145C185.887 151.203 185.763 151.289 185.667 151.405C185.581 151.53 185.476 151.645 185.343 151.731C184.999 151.972 184.627 152.183 184.245 152.366C184.083 152.433 183.92 152.471 183.749 152.5H182.994C182.918 152.471 182.832 152.471 182.756 152.5H182.154C182.069 152.481 181.983 152.481 181.897 152.5H181.639C181.591 152.481 181.534 152.481 181.486 152.5C181.419 152.519 181.353 152.519 181.295 152.5H180.952L180.608 152.346C180.245 152.202 179.921 151.981 179.663 151.693C179.386 151.414 179.176 151.078 179.033 150.713C178.966 150.578 178.928 150.444 178.899 150.3C178.89 150.156 178.89 150.011 178.899 149.867C178.88 149.781 178.88 149.694 178.899 149.608C178.909 149.521 178.909 149.435 178.899 149.348C178.899 149.31 178.899 149.262 178.899 149.214C178.909 149.166 178.909 149.108 178.899 149.06V141.613C178.899 141.498 178.938 141.383 179.004 141.287C179.071 141.162 179.186 141.066 179.329 141.046H179.501" fill="#D51B5D"/>
<path d="M196.567 140.585C196.911 140.585 197.101 140.672 197.149 140.845C197.178 141.095 197.178 141.335 197.149 141.585V142.017C197.149 142.132 197.111 142.248 197.044 142.344C196.949 142.459 196.806 142.526 196.653 142.536C196.5 142.517 196.338 142.517 196.176 142.536L195.593 142.67C195.412 142.709 195.24 142.767 195.078 142.843C194.667 143.016 194.314 143.295 194.047 143.651C193.77 143.996 193.531 144.371 193.36 144.775C193.293 144.938 193.254 145.101 193.226 145.274C193.197 145.447 193.169 145.62 193.121 145.793C193.111 145.87 193.111 145.957 193.121 146.034C193.13 146.101 193.13 146.178 193.121 146.255C193.092 146.456 193.092 146.658 193.121 146.86V151.27C193.111 151.405 193.111 151.549 193.121 151.683C193.159 151.78 193.159 151.885 193.121 151.991C193.035 152.097 192.911 152.173 192.777 152.183H191.679C191.622 152.164 191.565 152.125 191.527 152.077C191.45 151.962 191.412 151.837 191.393 151.712V141.373C191.412 141.248 191.45 141.133 191.527 141.027C191.594 140.95 191.67 140.902 191.765 140.874H192.825C192.939 140.912 193.035 141.008 193.064 141.133C193.083 141.268 193.083 141.412 193.064 141.546V141.979C193.035 142.113 193.035 142.257 193.064 142.392C193.226 142.392 193.369 142.315 193.455 142.171L193.713 141.844L193.865 141.69C194.028 141.508 194.209 141.335 194.4 141.191C194.61 141.037 194.839 140.893 195.068 140.778L195.479 140.624L195.956 140.489H196.452" fill="#D51B5D"/>
<path d="M208.833 146.12C208.871 146.283 208.871 146.456 208.833 146.619C208.823 146.754 208.766 146.888 208.68 146.984C208.585 147.061 208.48 147.109 208.356 147.119H200.891C200.795 147.09 200.7 147.09 200.614 147.119L200.442 147.292V147.465C200.404 147.542 200.404 147.628 200.442 147.705V147.897C200.433 147.965 200.433 148.032 200.442 148.089V148.435C200.461 148.57 200.509 148.695 200.576 148.801C200.891 149.569 201.492 150.184 202.256 150.511H203.077C203.344 150.549 203.611 150.549 203.879 150.511C204.146 150.549 204.423 150.549 204.7 150.511C204.891 150.463 205.082 150.396 205.263 150.319C205.406 150.376 205.559 150.424 205.712 150.453C205.874 150.348 206.017 150.223 206.141 150.088L206.447 149.636C206.542 149.483 206.618 149.329 206.685 149.156C206.752 149.002 206.876 148.877 207.029 148.81H208.088C208.165 148.791 208.251 148.791 208.327 148.81C208.48 148.916 208.499 149.089 208.432 149.329C208.318 149.704 208.155 150.059 207.955 150.396C207.697 150.838 207.363 151.222 206.962 151.549C206.542 151.885 206.055 152.144 205.54 152.308L205.11 152.413H201.378C201.13 152.308 200.891 152.183 200.662 152.048C200.251 151.77 199.879 151.424 199.583 151.03C199.278 150.607 199.01 150.146 198.81 149.665C198.743 149.502 198.686 149.319 198.657 149.146C198.619 148.973 198.562 148.801 198.504 148.628C198.504 148.58 198.504 148.522 198.504 148.474C198.504 148.407 198.504 148.339 198.504 148.282V147.196C198.504 147.119 198.504 147.033 198.504 146.956C198.495 146.86 198.495 146.763 198.504 146.677V146.139C198.524 146.062 198.524 145.976 198.504 145.899C198.495 145.822 198.495 145.735 198.504 145.658C198.504 145.418 198.609 145.178 198.657 144.938C198.676 144.717 198.743 144.496 198.829 144.284C198.905 144.121 198.982 143.958 199.049 143.785C199.115 143.612 199.192 143.448 199.287 143.285C199.593 142.785 199.955 142.334 200.385 141.94C200.834 141.536 201.34 141.219 201.893 140.989L202.428 140.835L203.01 140.7H203.659C204.203 140.672 204.757 140.739 205.272 140.893C205.712 141.017 206.122 141.21 206.504 141.459C206.571 141.479 206.637 141.527 206.676 141.594C206.723 141.604 206.781 141.604 206.828 141.594L207.191 141.901C207.315 142.017 207.42 142.142 207.516 142.267C207.735 142.545 207.926 142.843 208.098 143.16C208.213 143.324 208.298 143.497 208.356 143.679C208.403 143.881 208.47 144.073 208.547 144.265C208.613 144.457 208.671 144.65 208.699 144.851C208.699 145.072 208.699 145.265 208.852 145.486C209.005 145.707 208.852 145.678 208.852 145.793V146.12M206.695 145.361C206.752 145.293 206.781 145.207 206.8 145.12C206.847 145.024 206.847 144.909 206.8 144.813C206.714 144.496 206.59 144.188 206.437 143.9C206.246 143.583 206.017 143.304 205.75 143.055C205.473 142.785 205.139 142.574 204.776 142.449H204.146C204.022 142.43 203.888 142.43 203.755 142.449H203.392C203.344 142.468 203.287 142.468 203.239 142.449H202.418C202.027 142.593 201.674 142.824 201.387 143.122C201.11 143.42 200.872 143.756 200.7 144.121C200.652 144.208 200.605 144.294 200.566 144.381C200.519 144.496 200.48 144.621 200.461 144.746C200.442 144.871 200.442 145.005 200.461 145.14C200.48 145.245 200.528 145.332 200.614 145.399C200.795 145.505 201.005 145.553 201.215 145.534H206.093C206.313 145.562 206.542 145.495 206.723 145.361" fill="#D51B5D"/>
<path d="M155.692 59.9009H178.574V66.7903H163.109V73.1033H177.715V80.012H163.109V86.8918H179.414V93.7909H155.692V59.9009Z" fill="#D51B5D"/>
<path d="M45.8013 68.7021C44.188 66.8187 41.8016 65.8002 39.3292 65.9251C33.7258 65.9251 29.5829 70.5277 29.5829 76.783C29.5829 83.0383 33.7258 87.6409 39.0906 87.6409C41.8779 87.7658 44.5221 86.4398 46.0972 84.1241L52.2828 88.7747C49.4191 92.6182 44.8753 94.8186 40.0929 94.6841C29.5925 94.6841 21.9368 87.737 21.9368 76.8599C21.9368 65.9828 29.5925 59.0549 40.0929 59.0549C44.4362 58.9011 48.6077 60.7268 51.4619 64.0226L45.7917 68.7117L45.8013 68.7021Z" fill="#D51B5D"/>
</svg>
