<svg width="48" height="49" viewBox="0 0 48 49" fill="none" xmlns="http://www.w3.org/2000/svg">
<g clip-path="url(#clip0_10_11371)">
<path d="M34 44.0264H10C8.4087 44.0264 6.88258 43.3942 5.75736 42.269C4.63214 41.1438 4 39.6177 4 38.0264V22.0264C4 21.4959 3.78929 20.9872 3.41421 20.6122C3.03914 20.2371 2.53043 20.0264 2 20.0264C1.46957 20.0264 0.960859 20.2371 0.585786 20.6122C0.210714 20.9872 0 21.4959 0 22.0264L0 38.0264C0 40.6785 1.05357 43.2221 2.92893 45.0974C4.8043 46.9728 7.34784 48.0264 10 48.0264H34C34.5304 48.0264 35.0391 47.8157 35.4142 47.4406C35.7893 47.0655 36 46.5568 36 46.0264C36 45.4959 35.7893 44.9872 35.4142 44.6122C35.0391 44.2371 34.5304 44.0264 34 44.0264ZM42 8.02637H14C12.4087 8.02637 10.8826 8.65851 9.75736 9.78373C8.63214 10.9089 8 12.4351 8 14.0264V34.0264C8 35.6177 8.63214 37.1438 9.75736 38.269C10.8826 39.3942 12.4087 40.0264 14 40.0264H42C43.5913 40.0264 45.1174 39.3942 46.2426 38.269C47.3679 37.1438 48 35.6177 48 34.0264V14.0264C48 12.4351 47.3679 10.9089 46.2426 9.78373C45.1174 8.65851 43.5913 8.02637 42 8.02637ZM41.18 12.0264L29.42 23.7864C29.2341 23.9738 29.0129 24.1226 28.7692 24.2241C28.5254 24.3257 28.264 24.378 28 24.378C27.736 24.378 27.4746 24.3257 27.2308 24.2241C26.9871 24.1226 26.7659 23.9738 26.58 23.7864L14.82 12.0264H41.18ZM44 34.0264C44 34.5568 43.7893 35.0655 43.4142 35.4406C43.0391 35.8157 42.5304 36.0264 42 36.0264H14C13.4696 36.0264 12.9609 35.8157 12.5858 35.4406C12.2107 35.0655 12 34.5568 12 34.0264V14.7664L23.76 26.5264C24.885 27.65 26.41 28.2811 28 28.2811C29.59 28.2811 31.115 27.65 32.24 26.5264L44 14.7664V34.0264Z" fill="white"/>
</g>
<defs>
<clipPath id="clip0_10_11371">
<rect width="48" height="48" fill="white" transform="translate(0 0.766602)"/>
</clipPath>
</defs>
</svg>
