<svg width="64" height="64" viewBox="0 0 64 64" fill="none" xmlns="http://www.w3.org/2000/svg">
<mask id="path-1-outside-1_14_12339" maskUnits="userSpaceOnUse" x="-0.194824" y="-0.0727539" width="64" height="64" fill="black">
<rect fill="white" x="-0.194824" y="-0.0727539" width="64" height="64"/>
<path fill-rule="evenodd" clip-rule="evenodd" d="M29.7669 1.12067L28.8117 1.29316L27.9059 1.59711L27.0002 1.90106L26.1488 2.32966L25.2973 2.75838L25.0569 2.99867L24.8164 3.23908V3.64394V4.04869L25.0982 4.31344L25.3801 4.57808H25.6978H26.0154L26.9075 4.10078L27.7997 3.62349L28.5912 3.36482L29.3827 3.10603L30.5956 2.92259L31.8084 2.73927L33.031 2.86246L34.2534 2.98552L35.3418 3.30104L36.4302 3.61643L37.4738 4.15532L38.5174 4.69408L39.5125 5.49005L40.5076 6.28602L41.2403 7.19642L41.9731 8.10693L42.3983 8.86833L42.8235 9.62974L43.1993 10.7529L43.575 11.876L43.7171 13.147L43.8592 14.4181L43.7121 15.6708L43.5652 16.9236L43.1565 18.1168L42.7477 19.3101L42.1536 20.3014L41.5594 21.2927L40.5997 22.3114L39.64 23.3298L38.6452 23.9915L37.6503 24.6533L36.7768 25.0249L35.9032 25.3965L34.8347 25.6618L33.7663 25.927L32.1225 25.923L30.4786 25.919L29.6583 25.7191L28.8378 25.5193L27.8672 25.1452L26.8966 24.771L25.9478 24.1521L24.9991 23.5332L24.138 22.6678L23.2767 21.8024L22.7845 21.0721L22.2923 20.3417L21.8668 19.4896L21.4412 18.6375L21.1884 17.8463L20.9355 17.0551L20.8146 16.3856L20.6935 15.7161L20.6205 14.9767L20.5474 14.2373L20.671 13.1508L20.7946 12.0643L20.9848 11.3363L21.175 10.6083L21.4956 9.87562L21.8162 9.14283L22.4945 8.12227L23.1726 7.10184L23.4161 6.69235L23.6597 6.28286L23.474 5.95079L23.2884 5.61872L22.9564 5.43321L22.6246 5.24757L22.2898 5.43406L21.9549 5.62054L21.3563 6.40787L20.7576 7.1952L20.6257 7.17512L20.4937 7.15503L19.4662 6.88674L18.4389 6.61858L17.0918 6.67774L15.7448 6.73702L14.7707 7.05424L13.7965 7.37158L13.005 7.8311L12.2135 8.29074L11.1683 9.32578L10.1232 10.3607L9.5522 11.5169L8.98135 12.6729L8.80345 13.525L8.62567 14.3771L8.62348 15.4836L8.62141 16.5901L8.86567 17.5529L9.10994 18.5158L9.47561 19.2634L9.84139 20.011L10.3925 20.7242L10.9436 21.4372L11.6926 22.0746L12.4416 22.7118L13.3886 23.2043L14.3356 23.6968L15.2837 23.9416L16.2319 24.1863L17.5104 24.1856L18.789 24.1848L19.5196 23.9931L20.2502 23.8015L21.0245 23.4412L21.7987 23.0809L22.9859 24.2068L24.1731 25.3325L25.1408 25.9048L26.1085 26.4773L27.0346 26.848L27.9605 27.2186L29.0369 27.4881L30.1133 27.7578L32.2442 27.7539L34.3752 27.75L35.541 27.4363L36.7068 27.1225L37.6653 26.7235L38.6239 26.3246L39.6813 25.6175L40.7388 24.9103L41.599 24.0505L42.4593 23.1905L42.9442 23.4378L43.429 23.685L44.3763 23.9448L45.3234 24.2046L46.5465 24.1974L47.7696 24.1902L48.7178 23.9436L49.6658 23.6968L50.6118 23.2048L51.5577 22.7129L52.2479 22.1296L52.9381 21.5463L53.5407 20.7955L54.1435 20.0448L54.5174 19.2804L54.8915 18.5158L55.1357 17.5529L55.38 16.5901L55.3779 15.4836L55.3757 14.3771L55.198 13.525L55.0201 12.6729L54.4536 11.5256L53.887 10.3784L52.8984 9.38373L51.9096 8.3891L51.0573 7.8905L50.2049 7.39191L49.2308 7.06179L48.2566 6.73167L46.9172 6.6775L45.5777 6.62345L44.7863 6.80969L43.9948 6.99593L43.798 7.07189L43.6012 7.14785L43.1381 6.50209L42.6752 5.85621L41.9346 5.07728L41.1941 4.29822L40.2708 3.60901L39.3474 2.91967L38.3225 2.41584L37.2976 1.91214L36.3741 1.60551L35.4507 1.299L34.3041 1.11312L33.1575 0.927246L31.9398 0.937715L30.7221 0.948062L29.7669 1.12067ZM30.783 4.70211L29.9915 4.80972L28.9945 5.13181L27.9974 5.45402L27.0868 5.98694L26.1761 6.51974L25.4355 7.2053L24.6949 7.89075L24.0975 8.78349L23.5003 9.67624L23.1324 10.6298L22.7645 11.5833L22.5583 12.6759L22.352 13.7684L22.4216 14.9857L22.4912 16.203L22.688 16.9333L22.8847 17.6637L23.3568 18.647L23.8289 19.6302L24.4942 20.4802L25.1595 21.3301L25.9316 21.9677L26.7038 22.6052L27.7997 23.1485L28.8956 23.6916L29.8588 23.9338L30.822 24.1761L32.1724 24.1752L33.5228 24.1744L34.5347 23.9319L35.5466 23.6894L36.4243 23.2616L37.3018 22.8338L38.1482 22.1963L38.9945 21.559L39.6885 20.7306L40.3824 19.9024L40.8683 18.9656L41.3541 18.0289L41.6394 17.1159L41.9247 16.203L41.9223 14.4988L41.9199 12.7946L41.7001 11.9425L41.4803 11.0905L40.8769 9.85639L40.2736 8.62232L39.5318 7.81296L38.79 7.00372L38.0307 6.46216L37.2716 5.9206L36.4931 5.55639L35.7146 5.19231L34.7839 4.95433L33.8531 4.71636L32.7139 4.65549L31.5745 4.59451L30.783 4.70211ZM34.1316 6.71974L34.8622 6.89332L35.7146 7.31072L36.567 7.728L37.2196 8.28624L37.8723 8.84435L38.3453 9.41659L38.8182 9.98871L39.2342 10.7831L39.6502 11.5774L39.8686 12.3077L40.087 13.0381L40.0862 14.3162L40.0853 15.5943L39.811 16.5639L39.5366 17.5335L39.1522 18.2681L38.7677 19.0027L37.7892 19.9775L36.8105 20.9524L35.9894 21.3517L35.1684 21.751L34.2348 21.9897L33.3012 22.2285H32.1834H31.0655L30.1266 21.9884L29.1878 21.7484L28.3199 21.2925L27.4521 20.8366L26.7512 20.188L26.0504 19.5393L25.6051 18.8687L25.1598 18.1981L24.81 17.2399L24.4602 16.2816L24.331 15.2419L24.2018 14.2022L24.3302 13.3766L24.4588 12.5512L24.6997 11.8208L24.9404 11.0905L25.3044 10.456L25.6684 9.8217L26.4068 9.03254L27.1452 8.24339L27.831 7.78838L28.5168 7.33336L29.3999 6.99058L30.2831 6.6478L31.1114 6.54007L31.9398 6.43234L32.6704 6.48918L33.401 6.54615L34.1316 6.71974ZM19.2293 8.79311L19.8441 8.9757L19.7603 9.18093L19.6764 9.38628L19.4927 9.91129L19.3088 10.4362L19.1362 10.37L18.9636 10.3039L18.1984 10.1629L17.4332 10.0219L16.6499 10.1594L15.8666 10.2969L15.0751 10.6851L14.2836 11.0733L13.6128 11.7514L12.942 12.4295L12.6157 13.1063L12.2896 13.7829L12.1478 14.5974L12.0059 15.4118L12.1443 16.2334L12.2826 17.0551L12.6418 17.7963L13.001 18.5376L13.6424 19.1432L14.2836 19.7489L14.8346 20.0712L15.3855 20.3935L16.174 20.5957L16.9625 20.7978L17.8283 20.7326L18.6942 20.6673L19.3236 20.3966L19.9532 20.126L19.9897 20.173L20.0264 20.22L20.3581 20.8254L20.6896 21.4308L20.47 21.5917L20.2502 21.7526L19.3978 22.0192L18.5454 22.2858L17.3886 22.2801L16.2319 22.2742L15.5013 22.0595L14.7707 21.8448L14.1009 21.4724L13.4312 21.1L12.8556 20.6206L12.28 20.1411L11.6914 19.2615L11.1029 18.3818L10.8111 17.475L10.5193 16.5682L10.5256 15.3509L10.5321 14.1336L10.8051 13.3424L11.0782 12.5512L11.4891 11.8732L11.9001 11.1951L12.5475 10.583L13.195 9.97093L13.7393 9.6273L14.2836 9.28379L14.9839 8.99931L15.684 8.71472L16.3233 8.602L16.9625 8.48916L17.7885 8.5499L18.6145 8.61064L19.2293 8.79311ZM48.561 8.84387L49.3525 9.07417L50.1278 9.53455L50.9031 9.99492L51.6206 10.7613L52.338 11.5277L52.6917 12.2284L53.0456 12.9291L53.2615 13.653L53.4773 14.3771L53.4791 15.4726L53.4808 16.5682L53.2169 17.4254L52.9531 18.2824L52.4642 19.0387L51.9751 19.795L51.3399 20.4006L50.7047 21.0063L49.9068 21.4198L49.109 21.8333L48.4393 22.059L47.7696 22.2847H46.5519H45.3342L44.6645 22.0577L43.9948 21.8308L43.7925 21.7268L43.5904 21.6229L43.9582 20.944L44.326 20.2651L44.5257 20.3509L44.7254 20.4368L45.3303 20.6023L45.9352 20.7677H46.5529H47.1705L47.8962 20.5788L48.6219 20.3899L49.1699 20.0694L49.7178 19.7489L50.359 19.1432L51.0004 18.5376L51.3585 17.7963L51.7166 17.0551L51.8511 16.2823L51.9856 15.5096L51.8539 14.6613L51.7222 13.813L51.3477 13.0712L50.9731 12.3294L50.3454 11.7099L49.7178 11.0905L49.0962 10.7577L48.4746 10.425L47.6977 10.226L46.921 10.0271L46.2493 10.1013L45.5777 10.1757L45.3241 10.2463L45.0703 10.317L44.8027 9.61781L44.535 8.91849L44.691 8.82123L44.8471 8.72385L45.3342 8.66116L45.8213 8.59834L46.1257 8.55842L46.4301 8.51861L47.0998 8.56609L47.7696 8.61356L48.561 8.84387ZM18.3487 12.1352L18.789 12.2672L18.7949 14.3568L18.8009 16.4464L19.008 17.2756L19.2152 18.1048V18.225V18.3451L18.6976 18.5799L18.1801 18.8148L17.5016 18.8174L16.8232 18.8201L16.2604 18.6284L15.6974 18.4367L15.1377 17.944L14.5778 17.4514L14.3258 16.9578L14.0739 16.4641L14.0098 15.7582L13.9459 15.0524L14.1018 14.4959L14.2576 13.9394L14.6046 13.4606L14.9515 12.982L15.4337 12.6629L15.9159 12.3439L16.3783 12.1789L16.8407 12.0141L17.3745 12.0088L17.9083 12.0034L18.3487 12.1352ZM48.1951 12.4409L48.8311 12.7868L49.2399 13.2644L49.6488 13.7418L49.8508 14.3501L50.0529 14.9582L49.9929 15.706L49.9329 16.4536L49.6782 16.9526L49.4236 17.4514L48.8638 17.944L48.304 18.4367L47.7411 18.6284L47.1782 18.8201H46.5263H45.8744L45.4618 18.6479L45.0494 18.4755L45.3102 17.5219L45.5712 16.5682L45.5745 14.3512L45.5777 12.1341L45.8213 12.0783L46.0648 12.0224L46.812 12.0587L47.5593 12.0948L48.1951 12.4409ZM3.81161 16.9795L3.44631 17.076L2.9238 17.3444L2.40118 17.6129L1.93177 18.0964L1.46235 18.5801L1.19045 19.1566L0.918541 19.7331L0.86192 20.4634L0.805176 21.1938L1.67776 30.8711L2.55034 40.5483L2.66273 40.9744L2.77513 41.4004L3.13629 42.0266L3.49745 42.6529L8.06834 46.2679L12.6392 49.8828L12.7161 50.0072L12.793 50.1316L13.0167 54.2869L13.2404 58.4422L13.2445 60.6028L13.2486 62.7635L13.4921 63.0069L13.7356 63.2504H20.7793H27.8229L28.0548 62.9945L28.2868 62.7386L28.3277 60.6513L28.3686 58.5639L27.9716 52.6405L27.5745 46.7172L27.9187 45.3369L28.2631 43.9567L28.2693 42.8611L28.2755 41.7656L28.0111 40.9135L27.7466 40.0614L27.2871 39.2886L26.8274 38.5157L25.9014 37.6313L24.9753 36.7469L24.1087 36.2323L23.2421 35.7176L22.0506 35.2491L20.859 34.7807L20.6155 34.5425L20.3719 34.3042L19.2298 30.9559L18.0876 27.6076L17.643 27.0196L17.1984 26.4316L16.4306 26.0342L15.6626 25.6368H14.7707H13.8787L13.1107 26.0342L12.3429 26.4316L11.893 27.0264L11.4434 27.6212L11.2806 28.181L11.1176 28.7408L11.1235 29.3502L11.1294 29.9597L12.0841 32.7315L13.0388 35.5035L12.9785 35.5637L12.9182 35.624L11.5308 35.2357L10.1435 34.8473L10.0631 34.7764L9.98277 34.7054L9.35956 27.7062L8.73624 20.7069L8.61374 20.1032L8.49124 19.4996L8.22628 18.9691L7.96131 18.4386L7.42992 17.949L6.89853 17.4594L6.33121 17.2086L5.76378 16.9576L4.97034 16.9203L4.17691 16.8831L3.81161 16.9795ZM58.0983 17.0405L57.5898 17.2066L57.1582 17.4733L56.7265 17.74L56.245 18.2868L55.7636 18.8336L55.5624 19.405L55.3612 19.9765L54.7038 27.1584L54.0465 34.3403L54.013 34.5708L53.9797 34.8014L52.5309 35.2122L51.0821 35.623L51.0224 35.5633L50.9627 35.5035L51.921 32.7308L52.8793 29.9581L52.8731 29.2257L52.8667 28.4934L52.5599 27.8258L52.253 27.1584L51.9242 26.7698L51.5955 26.3813L50.8503 26.009L50.1052 25.6368H49.2308H48.3563L47.607 26.0112L46.8575 26.3855L46.4142 26.9264L45.9708 27.4673L44.8295 30.7821L43.688 34.0968L43.5541 34.3573L43.42 34.6178L43.1594 34.745L42.8989 34.8723L41.8162 35.3025L40.7336 35.7328L39.8798 36.2398L39.0261 36.7469L38.1 37.6313L37.174 38.5157L36.7143 39.2886L36.2548 40.0614L35.9903 40.9135L35.7259 41.7656L35.7321 42.8611L35.7383 43.9567L36.0827 45.3369L36.4269 46.7172L36.0299 52.6405L35.6328 58.5639L35.6737 60.6513L35.7146 62.7386L35.9466 62.9945L36.1785 63.2504H43.2222H50.2658L50.5093 63.0069L50.7528 62.7635L50.7569 60.6028L50.761 58.4422L50.9854 54.274L51.2097 50.106L51.651 49.6177L52.0923 49.1293V48.8418V48.5543L51.8399 48.2336L51.5876 47.9128H51.1765H50.7655L50.0241 48.5296L49.2826 49.1465L47.7955 50.4853L46.3083 51.824L46.1533 52.1183L45.9983 52.4127L46.0759 52.7219L46.1536 53.031L46.4103 53.2107L46.667 53.3905L47.0357 53.3892L47.4042 53.3878L48.3036 52.5729L49.203 51.758L49.1178 54.0045L49.0326 56.2511L48.9713 56.4641L48.9099 56.6771H43.2676H37.6251L37.6752 56.2207L37.7252 55.7642L37.9763 51.9925L38.2274 48.2209L38.28 48.1683L38.3326 48.1157V48.4275V48.7392L38.5859 49.5738L38.8393 50.4082L39.3168 51.2213L39.7945 52.0343L40.115 52.2864L40.4355 52.5384H40.729H41.0226L41.3214 52.2396L41.6203 51.9409L41.6202 51.6614V51.382L41.1307 50.5908L40.6413 49.7996L40.4002 49.026L40.1591 48.2523L40.162 47.3218L40.1651 46.3912L40.2907 45.8434L40.4164 45.2957L40.8275 44.4436L41.2387 43.5915L41.9171 42.7725L42.5954 41.9535L43.356 41.3483L44.1165 40.7431L45.2344 40.1202L46.3521 39.4975L47.5479 38.9737L48.7437 38.45L50.184 37.9467L51.6241 37.4433L53.4717 36.9438L55.3191 36.4443L55.5568 36.2164L55.7945 35.9886L56.4953 28.2259L57.1959 20.4634L57.262 20.1989L57.3282 19.9344L57.6472 19.5555L57.9661 19.1765L58.3108 18.9983L58.6557 18.8201H59.2144H59.7734L60.2433 19.0598L60.7132 19.2995L60.9534 19.6989L61.1935 20.0982L61.2652 20.4045L61.337 20.7108L60.4366 30.6725L59.5364 40.6343L59.2543 41.0446L58.9721 41.455L56.4759 43.4178L53.9797 45.3806L53.8131 45.7176L53.6464 46.0545L53.8142 46.4044L53.9819 46.7542L54.3179 46.9153L54.654 47.0762L55.0109 46.8983L55.3677 46.7204L57.9374 44.684L60.5069 42.6476L60.8666 42.024L61.2263 41.4004L61.3389 40.9744L61.4516 40.5483L62.3233 30.8711L63.1949 21.1938L63.1389 20.4634L63.0829 19.7331L62.811 19.1566L62.5391 18.5801L62.0688 18.0956L61.5985 17.6112L60.955 17.2837L60.3116 16.9562L59.4592 16.9152L58.6068 16.8742L58.0983 17.0405ZM5.6906 18.9983L6.03532 19.1765L6.34388 19.5432L6.65256 19.9098L6.73804 20.299L6.82352 20.688L7.51515 28.3383L8.20691 35.9886L8.4446 36.2164L8.68229 36.4443L10.5297 36.9438L12.3773 37.4433L13.8175 37.9467L15.2577 38.45L16.4535 38.9737L17.6493 39.4975L18.7716 40.119L19.8938 40.7404L20.7941 41.4965L21.6943 42.2525L22.3432 43.1046L22.9921 43.9567L23.3746 44.8696L23.7571 45.7826L23.8154 46.9569L23.8736 48.1312L23.6186 48.9704L23.3636 49.8097L22.8724 50.5695L22.3811 51.3293V51.6351V51.9409L22.68 52.2396L22.9789 52.5384H23.2724H23.5659L23.8864 52.2864L24.2069 52.0343L24.6846 51.2213L25.1621 50.4082L25.4155 49.5738L25.6688 48.7392V48.4275V48.1157L25.7214 48.1683L25.774 48.2209L26.0251 51.9925L26.2762 55.7642L26.3262 56.2207L26.3763 56.6771H20.7338H15.0915L15.0301 56.4641L14.9688 56.2511L14.8837 54.0045L14.7984 51.758L15.6978 52.5729L16.5972 53.3878L16.9401 53.3892L17.2828 53.3905L17.5243 53.2614L17.7656 53.1322L17.887 52.8129L18.0084 52.4936L17.8738 52.1686L17.7391 51.8436L15.9483 50.2521L14.1574 48.6607L9.59335 45.0578L5.02928 41.4548L4.74739 41.045L4.46562 40.6351L3.56381 30.6709L2.662 20.7069L2.78097 20.2808L2.89981 19.8548L3.11218 19.5923L3.32454 19.3298L3.75072 19.0754L4.17691 18.821L4.76139 18.8206L5.34575 18.8201L5.6906 18.9983ZM15.6921 27.7713L16.013 27.9372L16.2181 28.2499L16.423 28.5627L17.517 31.7491L18.6109 34.9354L18.9135 35.4515L19.2161 35.9676L19.5853 36.2306L19.9546 36.4934L21.1648 36.9522L22.375 37.4109L23.067 37.8232L23.759 38.2355L24.4791 38.8958L25.1993 39.556L25.5477 40.0623L25.896 40.5685L26.1477 41.3153L26.3994 42.0622V42.8183V43.5743L26.0753 44.922L25.7511 46.2695L25.538 45.4174L25.3249 44.5653L25.0719 43.9799L24.8189 43.3945L24.2808 42.5629L23.7426 41.7312L22.7888 40.793L21.8349 39.8549L20.7427 39.1245L19.6506 38.3943L18.3674 37.7551L17.0842 37.116L16.2289 36.7931L15.3736 36.4702L14.1734 33.0008L12.973 29.5315L13.0361 29.0617L13.0992 28.592L13.3209 28.2534L13.5428 27.915L14.0349 27.6874L14.5271 27.4598L14.949 27.5326L15.3711 27.6052L15.6921 27.7713ZM49.8996 27.6592L50.3907 27.8555L50.645 28.2127L50.8993 28.5697L50.9639 29.0505L51.0284 29.5315L49.8303 32.9941L48.6324 36.4567L47.5313 36.9085L46.4301 37.3603L45.3616 37.8919L44.2931 38.4236L43.4742 38.9485L42.6553 39.4732L41.8882 40.1116L41.1211 40.7499L40.3897 41.6699L39.6585 42.5898L39.2163 43.4559L38.774 44.3219L38.5107 45.2957L38.2475 46.2695L37.9248 44.922L37.602 43.5743V42.8442V42.1141L37.7954 41.453L37.9888 40.7918L38.3454 40.2301L38.702 39.6685L39.4001 39.0047L40.0982 38.3408L40.9575 37.8318L41.817 37.3227L42.8449 36.95L43.873 36.5771L44.3373 36.2584L44.8016 35.9398L45.0927 35.4431L45.3839 34.9466L46.4791 31.7577L47.5744 28.569L47.7885 28.242L48.0029 27.915L48.495 27.6916L48.9872 27.4681L49.1979 27.4654L49.4085 27.4627L49.8996 27.6592ZM26.3994 60.0246V61.4245H20.7372H15.0751V60.0246V58.6248H20.7372H26.3994V60.0246ZM48.9263 60.0246V61.4245H43.2642H37.602V60.0246V58.6248H43.2642H48.9263V60.0246Z"/>
</mask>
<path fill-rule="evenodd" clip-rule="evenodd" d="M29.7669 1.12067L28.8117 1.29316L27.9059 1.59711L27.0002 1.90106L26.1488 2.32966L25.2973 2.75838L25.0569 2.99867L24.8164 3.23908V3.64394V4.04869L25.0982 4.31344L25.3801 4.57808H25.6978H26.0154L26.9075 4.10078L27.7997 3.62349L28.5912 3.36482L29.3827 3.10603L30.5956 2.92259L31.8084 2.73927L33.031 2.86246L34.2534 2.98552L35.3418 3.30104L36.4302 3.61643L37.4738 4.15532L38.5174 4.69408L39.5125 5.49005L40.5076 6.28602L41.2403 7.19642L41.9731 8.10693L42.3983 8.86833L42.8235 9.62974L43.1993 10.7529L43.575 11.876L43.7171 13.147L43.8592 14.4181L43.7121 15.6708L43.5652 16.9236L43.1565 18.1168L42.7477 19.3101L42.1536 20.3014L41.5594 21.2927L40.5997 22.3114L39.64 23.3298L38.6452 23.9915L37.6503 24.6533L36.7768 25.0249L35.9032 25.3965L34.8347 25.6618L33.7663 25.927L32.1225 25.923L30.4786 25.919L29.6583 25.7191L28.8378 25.5193L27.8672 25.1452L26.8966 24.771L25.9478 24.1521L24.9991 23.5332L24.138 22.6678L23.2767 21.8024L22.7845 21.0721L22.2923 20.3417L21.8668 19.4896L21.4412 18.6375L21.1884 17.8463L20.9355 17.0551L20.8146 16.3856L20.6935 15.7161L20.6205 14.9767L20.5474 14.2373L20.671 13.1508L20.7946 12.0643L20.9848 11.3363L21.175 10.6083L21.4956 9.87562L21.8162 9.14283L22.4945 8.12227L23.1726 7.10184L23.4161 6.69235L23.6597 6.28286L23.474 5.95079L23.2884 5.61872L22.9564 5.43321L22.6246 5.24757L22.2898 5.43406L21.9549 5.62054L21.3563 6.40787L20.7576 7.1952L20.6257 7.17512L20.4937 7.15503L19.4662 6.88674L18.4389 6.61858L17.0918 6.67774L15.7448 6.73702L14.7707 7.05424L13.7965 7.37158L13.005 7.8311L12.2135 8.29074L11.1683 9.32578L10.1232 10.3607L9.5522 11.5169L8.98135 12.6729L8.80345 13.525L8.62567 14.3771L8.62348 15.4836L8.62141 16.5901L8.86567 17.5529L9.10994 18.5158L9.47561 19.2634L9.84139 20.011L10.3925 20.7242L10.9436 21.4372L11.6926 22.0746L12.4416 22.7118L13.3886 23.2043L14.3356 23.6968L15.2837 23.9416L16.2319 24.1863L17.5104 24.1856L18.789 24.1848L19.5196 23.9931L20.2502 23.8015L21.0245 23.4412L21.7987 23.0809L22.9859 24.2068L24.1731 25.3325L25.1408 25.9048L26.1085 26.4773L27.0346 26.848L27.9605 27.2186L29.0369 27.4881L30.1133 27.7578L32.2442 27.7539L34.3752 27.75L35.541 27.4363L36.7068 27.1225L37.6653 26.7235L38.6239 26.3246L39.6813 25.6175L40.7388 24.9103L41.599 24.0505L42.4593 23.1905L42.9442 23.4378L43.429 23.685L44.3763 23.9448L45.3234 24.2046L46.5465 24.1974L47.7696 24.1902L48.7178 23.9436L49.6658 23.6968L50.6118 23.2048L51.5577 22.7129L52.2479 22.1296L52.9381 21.5463L53.5407 20.7955L54.1435 20.0448L54.5174 19.2804L54.8915 18.5158L55.1357 17.5529L55.38 16.5901L55.3779 15.4836L55.3757 14.3771L55.198 13.525L55.0201 12.6729L54.4536 11.5256L53.887 10.3784L52.8984 9.38373L51.9096 8.3891L51.0573 7.8905L50.2049 7.39191L49.2308 7.06179L48.2566 6.73167L46.9172 6.6775L45.5777 6.62345L44.7863 6.80969L43.9948 6.99593L43.798 7.07189L43.6012 7.14785L43.1381 6.50209L42.6752 5.85621L41.9346 5.07728L41.1941 4.29822L40.2708 3.60901L39.3474 2.91967L38.3225 2.41584L37.2976 1.91214L36.3741 1.60551L35.4507 1.299L34.3041 1.11312L33.1575 0.927246L31.9398 0.937715L30.7221 0.948062L29.7669 1.12067ZM30.783 4.70211L29.9915 4.80972L28.9945 5.13181L27.9974 5.45402L27.0868 5.98694L26.1761 6.51974L25.4355 7.2053L24.6949 7.89075L24.0975 8.78349L23.5003 9.67624L23.1324 10.6298L22.7645 11.5833L22.5583 12.6759L22.352 13.7684L22.4216 14.9857L22.4912 16.203L22.688 16.9333L22.8847 17.6637L23.3568 18.647L23.8289 19.6302L24.4942 20.4802L25.1595 21.3301L25.9316 21.9677L26.7038 22.6052L27.7997 23.1485L28.8956 23.6916L29.8588 23.9338L30.822 24.1761L32.1724 24.1752L33.5228 24.1744L34.5347 23.9319L35.5466 23.6894L36.4243 23.2616L37.3018 22.8338L38.1482 22.1963L38.9945 21.559L39.6885 20.7306L40.3824 19.9024L40.8683 18.9656L41.3541 18.0289L41.6394 17.1159L41.9247 16.203L41.9223 14.4988L41.9199 12.7946L41.7001 11.9425L41.4803 11.0905L40.8769 9.85639L40.2736 8.62232L39.5318 7.81296L38.79 7.00372L38.0307 6.46216L37.2716 5.9206L36.4931 5.55639L35.7146 5.19231L34.7839 4.95433L33.8531 4.71636L32.7139 4.65549L31.5745 4.59451L30.783 4.70211ZM34.1316 6.71974L34.8622 6.89332L35.7146 7.31072L36.567 7.728L37.2196 8.28624L37.8723 8.84435L38.3453 9.41659L38.8182 9.98871L39.2342 10.7831L39.6502 11.5774L39.8686 12.3077L40.087 13.0381L40.0862 14.3162L40.0853 15.5943L39.811 16.5639L39.5366 17.5335L39.1522 18.2681L38.7677 19.0027L37.7892 19.9775L36.8105 20.9524L35.9894 21.3517L35.1684 21.751L34.2348 21.9897L33.3012 22.2285H32.1834H31.0655L30.1266 21.9884L29.1878 21.7484L28.3199 21.2925L27.4521 20.8366L26.7512 20.188L26.0504 19.5393L25.6051 18.8687L25.1598 18.1981L24.81 17.2399L24.4602 16.2816L24.331 15.2419L24.2018 14.2022L24.3302 13.3766L24.4588 12.5512L24.6997 11.8208L24.9404 11.0905L25.3044 10.456L25.6684 9.8217L26.4068 9.03254L27.1452 8.24339L27.831 7.78838L28.5168 7.33336L29.3999 6.99058L30.2831 6.6478L31.1114 6.54007L31.9398 6.43234L32.6704 6.48918L33.401 6.54615L34.1316 6.71974ZM19.2293 8.79311L19.8441 8.9757L19.7603 9.18093L19.6764 9.38628L19.4927 9.91129L19.3088 10.4362L19.1362 10.37L18.9636 10.3039L18.1984 10.1629L17.4332 10.0219L16.6499 10.1594L15.8666 10.2969L15.0751 10.6851L14.2836 11.0733L13.6128 11.7514L12.942 12.4295L12.6157 13.1063L12.2896 13.7829L12.1478 14.5974L12.0059 15.4118L12.1443 16.2334L12.2826 17.0551L12.6418 17.7963L13.001 18.5376L13.6424 19.1432L14.2836 19.7489L14.8346 20.0712L15.3855 20.3935L16.174 20.5957L16.9625 20.7978L17.8283 20.7326L18.6942 20.6673L19.3236 20.3966L19.9532 20.126L19.9897 20.173L20.0264 20.22L20.3581 20.8254L20.6896 21.4308L20.47 21.5917L20.2502 21.7526L19.3978 22.0192L18.5454 22.2858L17.3886 22.2801L16.2319 22.2742L15.5013 22.0595L14.7707 21.8448L14.1009 21.4724L13.4312 21.1L12.8556 20.6206L12.28 20.1411L11.6914 19.2615L11.1029 18.3818L10.8111 17.475L10.5193 16.5682L10.5256 15.3509L10.5321 14.1336L10.8051 13.3424L11.0782 12.5512L11.4891 11.8732L11.9001 11.1951L12.5475 10.583L13.195 9.97093L13.7393 9.6273L14.2836 9.28379L14.9839 8.99931L15.684 8.71472L16.3233 8.602L16.9625 8.48916L17.7885 8.5499L18.6145 8.61064L19.2293 8.79311ZM48.561 8.84387L49.3525 9.07417L50.1278 9.53455L50.9031 9.99492L51.6206 10.7613L52.338 11.5277L52.6917 12.2284L53.0456 12.9291L53.2615 13.653L53.4773 14.3771L53.4791 15.4726L53.4808 16.5682L53.2169 17.4254L52.9531 18.2824L52.4642 19.0387L51.9751 19.795L51.3399 20.4006L50.7047 21.0063L49.9068 21.4198L49.109 21.8333L48.4393 22.059L47.7696 22.2847H46.5519H45.3342L44.6645 22.0577L43.9948 21.8308L43.7925 21.7268L43.5904 21.6229L43.9582 20.944L44.326 20.2651L44.5257 20.3509L44.7254 20.4368L45.3303 20.6023L45.9352 20.7677H46.5529H47.1705L47.8962 20.5788L48.6219 20.3899L49.1699 20.0694L49.7178 19.7489L50.359 19.1432L51.0004 18.5376L51.3585 17.7963L51.7166 17.0551L51.8511 16.2823L51.9856 15.5096L51.8539 14.6613L51.7222 13.813L51.3477 13.0712L50.9731 12.3294L50.3454 11.7099L49.7178 11.0905L49.0962 10.7577L48.4746 10.425L47.6977 10.226L46.921 10.0271L46.2493 10.1013L45.5777 10.1757L45.3241 10.2463L45.0703 10.317L44.8027 9.61781L44.535 8.91849L44.691 8.82123L44.8471 8.72385L45.3342 8.66116L45.8213 8.59834L46.1257 8.55842L46.4301 8.51861L47.0998 8.56609L47.7696 8.61356L48.561 8.84387ZM18.3487 12.1352L18.789 12.2672L18.7949 14.3568L18.8009 16.4464L19.008 17.2756L19.2152 18.1048V18.225V18.3451L18.6976 18.5799L18.1801 18.8148L17.5016 18.8174L16.8232 18.8201L16.2604 18.6284L15.6974 18.4367L15.1377 17.944L14.5778 17.4514L14.3258 16.9578L14.0739 16.4641L14.0098 15.7582L13.9459 15.0524L14.1018 14.4959L14.2576 13.9394L14.6046 13.4606L14.9515 12.982L15.4337 12.6629L15.9159 12.3439L16.3783 12.1789L16.8407 12.0141L17.3745 12.0088L17.9083 12.0034L18.3487 12.1352ZM48.1951 12.4409L48.8311 12.7868L49.2399 13.2644L49.6488 13.7418L49.8508 14.3501L50.0529 14.9582L49.9929 15.706L49.9329 16.4536L49.6782 16.9526L49.4236 17.4514L48.8638 17.944L48.304 18.4367L47.7411 18.6284L47.1782 18.8201H46.5263H45.8744L45.4618 18.6479L45.0494 18.4755L45.3102 17.5219L45.5712 16.5682L45.5745 14.3512L45.5777 12.1341L45.8213 12.0783L46.0648 12.0224L46.812 12.0587L47.5593 12.0948L48.1951 12.4409ZM3.81161 16.9795L3.44631 17.076L2.9238 17.3444L2.40118 17.6129L1.93177 18.0964L1.46235 18.5801L1.19045 19.1566L0.918541 19.7331L0.86192 20.4634L0.805176 21.1938L1.67776 30.8711L2.55034 40.5483L2.66273 40.9744L2.77513 41.4004L3.13629 42.0266L3.49745 42.6529L8.06834 46.2679L12.6392 49.8828L12.7161 50.0072L12.793 50.1316L13.0167 54.2869L13.2404 58.4422L13.2445 60.6028L13.2486 62.7635L13.4921 63.0069L13.7356 63.2504H20.7793H27.8229L28.0548 62.9945L28.2868 62.7386L28.3277 60.6513L28.3686 58.5639L27.9716 52.6405L27.5745 46.7172L27.9187 45.3369L28.2631 43.9567L28.2693 42.8611L28.2755 41.7656L28.0111 40.9135L27.7466 40.0614L27.2871 39.2886L26.8274 38.5157L25.9014 37.6313L24.9753 36.7469L24.1087 36.2323L23.2421 35.7176L22.0506 35.2491L20.859 34.7807L20.6155 34.5425L20.3719 34.3042L19.2298 30.9559L18.0876 27.6076L17.643 27.0196L17.1984 26.4316L16.4306 26.0342L15.6626 25.6368H14.7707H13.8787L13.1107 26.0342L12.3429 26.4316L11.893 27.0264L11.4434 27.6212L11.2806 28.181L11.1176 28.7408L11.1235 29.3502L11.1294 29.9597L12.0841 32.7315L13.0388 35.5035L12.9785 35.5637L12.9182 35.624L11.5308 35.2357L10.1435 34.8473L10.0631 34.7764L9.98277 34.7054L9.35956 27.7062L8.73624 20.7069L8.61374 20.1032L8.49124 19.4996L8.22628 18.9691L7.96131 18.4386L7.42992 17.949L6.89853 17.4594L6.33121 17.2086L5.76378 16.9576L4.97034 16.9203L4.17691 16.8831L3.81161 16.9795ZM58.0983 17.0405L57.5898 17.2066L57.1582 17.4733L56.7265 17.74L56.245 18.2868L55.7636 18.8336L55.5624 19.405L55.3612 19.9765L54.7038 27.1584L54.0465 34.3403L54.013 34.5708L53.9797 34.8014L52.5309 35.2122L51.0821 35.623L51.0224 35.5633L50.9627 35.5035L51.921 32.7308L52.8793 29.9581L52.8731 29.2257L52.8667 28.4934L52.5599 27.8258L52.253 27.1584L51.9242 26.7698L51.5955 26.3813L50.8503 26.009L50.1052 25.6368H49.2308H48.3563L47.607 26.0112L46.8575 26.3855L46.4142 26.9264L45.9708 27.4673L44.8295 30.7821L43.688 34.0968L43.5541 34.3573L43.42 34.6178L43.1594 34.745L42.8989 34.8723L41.8162 35.3025L40.7336 35.7328L39.8798 36.2398L39.0261 36.7469L38.1 37.6313L37.174 38.5157L36.7143 39.2886L36.2548 40.0614L35.9903 40.9135L35.7259 41.7656L35.7321 42.8611L35.7383 43.9567L36.0827 45.3369L36.4269 46.7172L36.0299 52.6405L35.6328 58.5639L35.6737 60.6513L35.7146 62.7386L35.9466 62.9945L36.1785 63.2504H43.2222H50.2658L50.5093 63.0069L50.7528 62.7635L50.7569 60.6028L50.761 58.4422L50.9854 54.274L51.2097 50.106L51.651 49.6177L52.0923 49.1293V48.8418V48.5543L51.8399 48.2336L51.5876 47.9128H51.1765H50.7655L50.0241 48.5296L49.2826 49.1465L47.7955 50.4853L46.3083 51.824L46.1533 52.1183L45.9983 52.4127L46.0759 52.7219L46.1536 53.031L46.4103 53.2107L46.667 53.3905L47.0357 53.3892L47.4042 53.3878L48.3036 52.5729L49.203 51.758L49.1178 54.0045L49.0326 56.2511L48.9713 56.4641L48.9099 56.6771H43.2676H37.6251L37.6752 56.2207L37.7252 55.7642L37.9763 51.9925L38.2274 48.2209L38.28 48.1683L38.3326 48.1157V48.4275V48.7392L38.5859 49.5738L38.8393 50.4082L39.3168 51.2213L39.7945 52.0343L40.115 52.2864L40.4355 52.5384H40.729H41.0226L41.3214 52.2396L41.6203 51.9409L41.6202 51.6614V51.382L41.1307 50.5908L40.6413 49.7996L40.4002 49.026L40.1591 48.2523L40.162 47.3218L40.1651 46.3912L40.2907 45.8434L40.4164 45.2957L40.8275 44.4436L41.2387 43.5915L41.9171 42.7725L42.5954 41.9535L43.356 41.3483L44.1165 40.7431L45.2344 40.1202L46.3521 39.4975L47.5479 38.9737L48.7437 38.45L50.184 37.9467L51.6241 37.4433L53.4717 36.9438L55.3191 36.4443L55.5568 36.2164L55.7945 35.9886L56.4953 28.2259L57.1959 20.4634L57.262 20.1989L57.3282 19.9344L57.6472 19.5555L57.9661 19.1765L58.3108 18.9983L58.6557 18.8201H59.2144H59.7734L60.2433 19.0598L60.7132 19.2995L60.9534 19.6989L61.1935 20.0982L61.2652 20.4045L61.337 20.7108L60.4366 30.6725L59.5364 40.6343L59.2543 41.0446L58.9721 41.455L56.4759 43.4178L53.9797 45.3806L53.8131 45.7176L53.6464 46.0545L53.8142 46.4044L53.9819 46.7542L54.3179 46.9153L54.654 47.0762L55.0109 46.8983L55.3677 46.7204L57.9374 44.684L60.5069 42.6476L60.8666 42.024L61.2263 41.4004L61.3389 40.9744L61.4516 40.5483L62.3233 30.8711L63.1949 21.1938L63.1389 20.4634L63.0829 19.7331L62.811 19.1566L62.5391 18.5801L62.0688 18.0956L61.5985 17.6112L60.955 17.2837L60.3116 16.9562L59.4592 16.9152L58.6068 16.8742L58.0983 17.0405ZM5.6906 18.9983L6.03532 19.1765L6.34388 19.5432L6.65256 19.9098L6.73804 20.299L6.82352 20.688L7.51515 28.3383L8.20691 35.9886L8.4446 36.2164L8.68229 36.4443L10.5297 36.9438L12.3773 37.4433L13.8175 37.9467L15.2577 38.45L16.4535 38.9737L17.6493 39.4975L18.7716 40.119L19.8938 40.7404L20.7941 41.4965L21.6943 42.2525L22.3432 43.1046L22.9921 43.9567L23.3746 44.8696L23.7571 45.7826L23.8154 46.9569L23.8736 48.1312L23.6186 48.9704L23.3636 49.8097L22.8724 50.5695L22.3811 51.3293V51.6351V51.9409L22.68 52.2396L22.9789 52.5384H23.2724H23.5659L23.8864 52.2864L24.2069 52.0343L24.6846 51.2213L25.1621 50.4082L25.4155 49.5738L25.6688 48.7392V48.4275V48.1157L25.7214 48.1683L25.774 48.2209L26.0251 51.9925L26.2762 55.7642L26.3262 56.2207L26.3763 56.6771H20.7338H15.0915L15.0301 56.4641L14.9688 56.2511L14.8837 54.0045L14.7984 51.758L15.6978 52.5729L16.5972 53.3878L16.9401 53.3892L17.2828 53.3905L17.5243 53.2614L17.7656 53.1322L17.887 52.8129L18.0084 52.4936L17.8738 52.1686L17.7391 51.8436L15.9483 50.2521L14.1574 48.6607L9.59335 45.0578L5.02928 41.4548L4.74739 41.045L4.46562 40.6351L3.56381 30.6709L2.662 20.7069L2.78097 20.2808L2.89981 19.8548L3.11218 19.5923L3.32454 19.3298L3.75072 19.0754L4.17691 18.821L4.76139 18.8206L5.34575 18.8201L5.6906 18.9983ZM15.6921 27.7713L16.013 27.9372L16.2181 28.2499L16.423 28.5627L17.517 31.7491L18.6109 34.9354L18.9135 35.4515L19.2161 35.9676L19.5853 36.2306L19.9546 36.4934L21.1648 36.9522L22.375 37.4109L23.067 37.8232L23.759 38.2355L24.4791 38.8958L25.1993 39.556L25.5477 40.0623L25.896 40.5685L26.1477 41.3153L26.3994 42.0622V42.8183V43.5743L26.0753 44.922L25.7511 46.2695L25.538 45.4174L25.3249 44.5653L25.0719 43.9799L24.8189 43.3945L24.2808 42.5629L23.7426 41.7312L22.7888 40.793L21.8349 39.8549L20.7427 39.1245L19.6506 38.3943L18.3674 37.7551L17.0842 37.116L16.2289 36.7931L15.3736 36.4702L14.1734 33.0008L12.973 29.5315L13.0361 29.0617L13.0992 28.592L13.3209 28.2534L13.5428 27.915L14.0349 27.6874L14.5271 27.4598L14.949 27.5326L15.3711 27.6052L15.6921 27.7713ZM49.8996 27.6592L50.3907 27.8555L50.645 28.2127L50.8993 28.5697L50.9639 29.0505L51.0284 29.5315L49.8303 32.9941L48.6324 36.4567L47.5313 36.9085L46.4301 37.3603L45.3616 37.8919L44.2931 38.4236L43.4742 38.9485L42.6553 39.4732L41.8882 40.1116L41.1211 40.7499L40.3897 41.6699L39.6585 42.5898L39.2163 43.4559L38.774 44.3219L38.5107 45.2957L38.2475 46.2695L37.9248 44.922L37.602 43.5743V42.8442V42.1141L37.7954 41.453L37.9888 40.7918L38.3454 40.2301L38.702 39.6685L39.4001 39.0047L40.0982 38.3408L40.9575 37.8318L41.817 37.3227L42.8449 36.95L43.873 36.5771L44.3373 36.2584L44.8016 35.9398L45.0927 35.4431L45.3839 34.9466L46.4791 31.7577L47.5744 28.569L47.7885 28.242L48.0029 27.915L48.495 27.6916L48.9872 27.4681L49.1979 27.4654L49.4085 27.4627L49.8996 27.6592ZM26.3994 60.0246V61.4245H20.7372H15.0751V60.0246V58.6248H20.7372H26.3994V60.0246ZM48.9263 60.0246V61.4245H43.2642H37.602V60.0246V58.6248H43.2642H48.9263V60.0246Z" fill="white"/>
<path fill-rule="evenodd" clip-rule="evenodd" d="M29.7669 1.12067L28.8117 1.29316L27.9059 1.59711L27.0002 1.90106L26.1488 2.32966L25.2973 2.75838L25.0569 2.99867L24.8164 3.23908V3.64394V4.04869L25.0982 4.31344L25.3801 4.57808H25.6978H26.0154L26.9075 4.10078L27.7997 3.62349L28.5912 3.36482L29.3827 3.10603L30.5956 2.92259L31.8084 2.73927L33.031 2.86246L34.2534 2.98552L35.3418 3.30104L36.4302 3.61643L37.4738 4.15532L38.5174 4.69408L39.5125 5.49005L40.5076 6.28602L41.2403 7.19642L41.9731 8.10693L42.3983 8.86833L42.8235 9.62974L43.1993 10.7529L43.575 11.876L43.7171 13.147L43.8592 14.4181L43.7121 15.6708L43.5652 16.9236L43.1565 18.1168L42.7477 19.3101L42.1536 20.3014L41.5594 21.2927L40.5997 22.3114L39.64 23.3298L38.6452 23.9915L37.6503 24.6533L36.7768 25.0249L35.9032 25.3965L34.8347 25.6618L33.7663 25.927L32.1225 25.923L30.4786 25.919L29.6583 25.7191L28.8378 25.5193L27.8672 25.1452L26.8966 24.771L25.9478 24.1521L24.9991 23.5332L24.138 22.6678L23.2767 21.8024L22.7845 21.0721L22.2923 20.3417L21.8668 19.4896L21.4412 18.6375L21.1884 17.8463L20.9355 17.0551L20.8146 16.3856L20.6935 15.7161L20.6205 14.9767L20.5474 14.2373L20.671 13.1508L20.7946 12.0643L20.9848 11.3363L21.175 10.6083L21.4956 9.87562L21.8162 9.14283L22.4945 8.12227L23.1726 7.10184L23.4161 6.69235L23.6597 6.28286L23.474 5.95079L23.2884 5.61872L22.9564 5.43321L22.6246 5.24757L22.2898 5.43406L21.9549 5.62054L21.3563 6.40787L20.7576 7.1952L20.6257 7.17512L20.4937 7.15503L19.4662 6.88674L18.4389 6.61858L17.0918 6.67774L15.7448 6.73702L14.7707 7.05424L13.7965 7.37158L13.005 7.8311L12.2135 8.29074L11.1683 9.32578L10.1232 10.3607L9.5522 11.5169L8.98135 12.6729L8.80345 13.525L8.62567 14.3771L8.62348 15.4836L8.62141 16.5901L8.86567 17.5529L9.10994 18.5158L9.47561 19.2634L9.84139 20.011L10.3925 20.7242L10.9436 21.4372L11.6926 22.0746L12.4416 22.7118L13.3886 23.2043L14.3356 23.6968L15.2837 23.9416L16.2319 24.1863L17.5104 24.1856L18.789 24.1848L19.5196 23.9931L20.2502 23.8015L21.0245 23.4412L21.7987 23.0809L22.9859 24.2068L24.1731 25.3325L25.1408 25.9048L26.1085 26.4773L27.0346 26.848L27.9605 27.2186L29.0369 27.4881L30.1133 27.7578L32.2442 27.7539L34.3752 27.75L35.541 27.4363L36.7068 27.1225L37.6653 26.7235L38.6239 26.3246L39.6813 25.6175L40.7388 24.9103L41.599 24.0505L42.4593 23.1905L42.9442 23.4378L43.429 23.685L44.3763 23.9448L45.3234 24.2046L46.5465 24.1974L47.7696 24.1902L48.7178 23.9436L49.6658 23.6968L50.6118 23.2048L51.5577 22.7129L52.2479 22.1296L52.9381 21.5463L53.5407 20.7955L54.1435 20.0448L54.5174 19.2804L54.8915 18.5158L55.1357 17.5529L55.38 16.5901L55.3779 15.4836L55.3757 14.3771L55.198 13.525L55.0201 12.6729L54.4536 11.5256L53.887 10.3784L52.8984 9.38373L51.9096 8.3891L51.0573 7.8905L50.2049 7.39191L49.2308 7.06179L48.2566 6.73167L46.9172 6.6775L45.5777 6.62345L44.7863 6.80969L43.9948 6.99593L43.798 7.07189L43.6012 7.14785L43.1381 6.50209L42.6752 5.85621L41.9346 5.07728L41.1941 4.29822L40.2708 3.60901L39.3474 2.91967L38.3225 2.41584L37.2976 1.91214L36.3741 1.60551L35.4507 1.299L34.3041 1.11312L33.1575 0.927246L31.9398 0.937715L30.7221 0.948062L29.7669 1.12067ZM30.783 4.70211L29.9915 4.80972L28.9945 5.13181L27.9974 5.45402L27.0868 5.98694L26.1761 6.51974L25.4355 7.2053L24.6949 7.89075L24.0975 8.78349L23.5003 9.67624L23.1324 10.6298L22.7645 11.5833L22.5583 12.6759L22.352 13.7684L22.4216 14.9857L22.4912 16.203L22.688 16.9333L22.8847 17.6637L23.3568 18.647L23.8289 19.6302L24.4942 20.4802L25.1595 21.3301L25.9316 21.9677L26.7038 22.6052L27.7997 23.1485L28.8956 23.6916L29.8588 23.9338L30.822 24.1761L32.1724 24.1752L33.5228 24.1744L34.5347 23.9319L35.5466 23.6894L36.4243 23.2616L37.3018 22.8338L38.1482 22.1963L38.9945 21.559L39.6885 20.7306L40.3824 19.9024L40.8683 18.9656L41.3541 18.0289L41.6394 17.1159L41.9247 16.203L41.9223 14.4988L41.9199 12.7946L41.7001 11.9425L41.4803 11.0905L40.8769 9.85639L40.2736 8.62232L39.5318 7.81296L38.79 7.00372L38.0307 6.46216L37.2716 5.9206L36.4931 5.55639L35.7146 5.19231L34.7839 4.95433L33.8531 4.71636L32.7139 4.65549L31.5745 4.59451L30.783 4.70211ZM34.1316 6.71974L34.8622 6.89332L35.7146 7.31072L36.567 7.728L37.2196 8.28624L37.8723 8.84435L38.3453 9.41659L38.8182 9.98871L39.2342 10.7831L39.6502 11.5774L39.8686 12.3077L40.087 13.0381L40.0862 14.3162L40.0853 15.5943L39.811 16.5639L39.5366 17.5335L39.1522 18.2681L38.7677 19.0027L37.7892 19.9775L36.8105 20.9524L35.9894 21.3517L35.1684 21.751L34.2348 21.9897L33.3012 22.2285H32.1834H31.0655L30.1266 21.9884L29.1878 21.7484L28.3199 21.2925L27.4521 20.8366L26.7512 20.188L26.0504 19.5393L25.6051 18.8687L25.1598 18.1981L24.81 17.2399L24.4602 16.2816L24.331 15.2419L24.2018 14.2022L24.3302 13.3766L24.4588 12.5512L24.6997 11.8208L24.9404 11.0905L25.3044 10.456L25.6684 9.8217L26.4068 9.03254L27.1452 8.24339L27.831 7.78838L28.5168 7.33336L29.3999 6.99058L30.2831 6.6478L31.1114 6.54007L31.9398 6.43234L32.6704 6.48918L33.401 6.54615L34.1316 6.71974ZM19.2293 8.79311L19.8441 8.9757L19.7603 9.18093L19.6764 9.38628L19.4927 9.91129L19.3088 10.4362L19.1362 10.37L18.9636 10.3039L18.1984 10.1629L17.4332 10.0219L16.6499 10.1594L15.8666 10.2969L15.0751 10.6851L14.2836 11.0733L13.6128 11.7514L12.942 12.4295L12.6157 13.1063L12.2896 13.7829L12.1478 14.5974L12.0059 15.4118L12.1443 16.2334L12.2826 17.0551L12.6418 17.7963L13.001 18.5376L13.6424 19.1432L14.2836 19.7489L14.8346 20.0712L15.3855 20.3935L16.174 20.5957L16.9625 20.7978L17.8283 20.7326L18.6942 20.6673L19.3236 20.3966L19.9532 20.126L19.9897 20.173L20.0264 20.22L20.3581 20.8254L20.6896 21.4308L20.47 21.5917L20.2502 21.7526L19.3978 22.0192L18.5454 22.2858L17.3886 22.2801L16.2319 22.2742L15.5013 22.0595L14.7707 21.8448L14.1009 21.4724L13.4312 21.1L12.8556 20.6206L12.28 20.1411L11.6914 19.2615L11.1029 18.3818L10.8111 17.475L10.5193 16.5682L10.5256 15.3509L10.5321 14.1336L10.8051 13.3424L11.0782 12.5512L11.4891 11.8732L11.9001 11.1951L12.5475 10.583L13.195 9.97093L13.7393 9.6273L14.2836 9.28379L14.9839 8.99931L15.684 8.71472L16.3233 8.602L16.9625 8.48916L17.7885 8.5499L18.6145 8.61064L19.2293 8.79311ZM48.561 8.84387L49.3525 9.07417L50.1278 9.53455L50.9031 9.99492L51.6206 10.7613L52.338 11.5277L52.6917 12.2284L53.0456 12.9291L53.2615 13.653L53.4773 14.3771L53.4791 15.4726L53.4808 16.5682L53.2169 17.4254L52.9531 18.2824L52.4642 19.0387L51.9751 19.795L51.3399 20.4006L50.7047 21.0063L49.9068 21.4198L49.109 21.8333L48.4393 22.059L47.7696 22.2847H46.5519H45.3342L44.6645 22.0577L43.9948 21.8308L43.7925 21.7268L43.5904 21.6229L43.9582 20.944L44.326 20.2651L44.5257 20.3509L44.7254 20.4368L45.3303 20.6023L45.9352 20.7677H46.5529H47.1705L47.8962 20.5788L48.6219 20.3899L49.1699 20.0694L49.7178 19.7489L50.359 19.1432L51.0004 18.5376L51.3585 17.7963L51.7166 17.0551L51.8511 16.2823L51.9856 15.5096L51.8539 14.6613L51.7222 13.813L51.3477 13.0712L50.9731 12.3294L50.3454 11.7099L49.7178 11.0905L49.0962 10.7577L48.4746 10.425L47.6977 10.226L46.921 10.0271L46.2493 10.1013L45.5777 10.1757L45.3241 10.2463L45.0703 10.317L44.8027 9.61781L44.535 8.91849L44.691 8.82123L44.8471 8.72385L45.3342 8.66116L45.8213 8.59834L46.1257 8.55842L46.4301 8.51861L47.0998 8.56609L47.7696 8.61356L48.561 8.84387ZM18.3487 12.1352L18.789 12.2672L18.7949 14.3568L18.8009 16.4464L19.008 17.2756L19.2152 18.1048V18.225V18.3451L18.6976 18.5799L18.1801 18.8148L17.5016 18.8174L16.8232 18.8201L16.2604 18.6284L15.6974 18.4367L15.1377 17.944L14.5778 17.4514L14.3258 16.9578L14.0739 16.4641L14.0098 15.7582L13.9459 15.0524L14.1018 14.4959L14.2576 13.9394L14.6046 13.4606L14.9515 12.982L15.4337 12.6629L15.9159 12.3439L16.3783 12.1789L16.8407 12.0141L17.3745 12.0088L17.9083 12.0034L18.3487 12.1352ZM48.1951 12.4409L48.8311 12.7868L49.2399 13.2644L49.6488 13.7418L49.8508 14.3501L50.0529 14.9582L49.9929 15.706L49.9329 16.4536L49.6782 16.9526L49.4236 17.4514L48.8638 17.944L48.304 18.4367L47.7411 18.6284L47.1782 18.8201H46.5263H45.8744L45.4618 18.6479L45.0494 18.4755L45.3102 17.5219L45.5712 16.5682L45.5745 14.3512L45.5777 12.1341L45.8213 12.0783L46.0648 12.0224L46.812 12.0587L47.5593 12.0948L48.1951 12.4409ZM3.81161 16.9795L3.44631 17.076L2.9238 17.3444L2.40118 17.6129L1.93177 18.0964L1.46235 18.5801L1.19045 19.1566L0.918541 19.7331L0.86192 20.4634L0.805176 21.1938L1.67776 30.8711L2.55034 40.5483L2.66273 40.9744L2.77513 41.4004L3.13629 42.0266L3.49745 42.6529L8.06834 46.2679L12.6392 49.8828L12.7161 50.0072L12.793 50.1316L13.0167 54.2869L13.2404 58.4422L13.2445 60.6028L13.2486 62.7635L13.4921 63.0069L13.7356 63.2504H20.7793H27.8229L28.0548 62.9945L28.2868 62.7386L28.3277 60.6513L28.3686 58.5639L27.9716 52.6405L27.5745 46.7172L27.9187 45.3369L28.2631 43.9567L28.2693 42.8611L28.2755 41.7656L28.0111 40.9135L27.7466 40.0614L27.2871 39.2886L26.8274 38.5157L25.9014 37.6313L24.9753 36.7469L24.1087 36.2323L23.2421 35.7176L22.0506 35.2491L20.859 34.7807L20.6155 34.5425L20.3719 34.3042L19.2298 30.9559L18.0876 27.6076L17.643 27.0196L17.1984 26.4316L16.4306 26.0342L15.6626 25.6368H14.7707H13.8787L13.1107 26.0342L12.3429 26.4316L11.893 27.0264L11.4434 27.6212L11.2806 28.181L11.1176 28.7408L11.1235 29.3502L11.1294 29.9597L12.0841 32.7315L13.0388 35.5035L12.9785 35.5637L12.9182 35.624L11.5308 35.2357L10.1435 34.8473L10.0631 34.7764L9.98277 34.7054L9.35956 27.7062L8.73624 20.7069L8.61374 20.1032L8.49124 19.4996L8.22628 18.9691L7.96131 18.4386L7.42992 17.949L6.89853 17.4594L6.33121 17.2086L5.76378 16.9576L4.97034 16.9203L4.17691 16.8831L3.81161 16.9795ZM58.0983 17.0405L57.5898 17.2066L57.1582 17.4733L56.7265 17.74L56.245 18.2868L55.7636 18.8336L55.5624 19.405L55.3612 19.9765L54.7038 27.1584L54.0465 34.3403L54.013 34.5708L53.9797 34.8014L52.5309 35.2122L51.0821 35.623L51.0224 35.5633L50.9627 35.5035L51.921 32.7308L52.8793 29.9581L52.8731 29.2257L52.8667 28.4934L52.5599 27.8258L52.253 27.1584L51.9242 26.7698L51.5955 26.3813L50.8503 26.009L50.1052 25.6368H49.2308H48.3563L47.607 26.0112L46.8575 26.3855L46.4142 26.9264L45.9708 27.4673L44.8295 30.7821L43.688 34.0968L43.5541 34.3573L43.42 34.6178L43.1594 34.745L42.8989 34.8723L41.8162 35.3025L40.7336 35.7328L39.8798 36.2398L39.0261 36.7469L38.1 37.6313L37.174 38.5157L36.7143 39.2886L36.2548 40.0614L35.9903 40.9135L35.7259 41.7656L35.7321 42.8611L35.7383 43.9567L36.0827 45.3369L36.4269 46.7172L36.0299 52.6405L35.6328 58.5639L35.6737 60.6513L35.7146 62.7386L35.9466 62.9945L36.1785 63.2504H43.2222H50.2658L50.5093 63.0069L50.7528 62.7635L50.7569 60.6028L50.761 58.4422L50.9854 54.274L51.2097 50.106L51.651 49.6177L52.0923 49.1293V48.8418V48.5543L51.8399 48.2336L51.5876 47.9128H51.1765H50.7655L50.0241 48.5296L49.2826 49.1465L47.7955 50.4853L46.3083 51.824L46.1533 52.1183L45.9983 52.4127L46.0759 52.7219L46.1536 53.031L46.4103 53.2107L46.667 53.3905L47.0357 53.3892L47.4042 53.3878L48.3036 52.5729L49.203 51.758L49.1178 54.0045L49.0326 56.2511L48.9713 56.4641L48.9099 56.6771H43.2676H37.6251L37.6752 56.2207L37.7252 55.7642L37.9763 51.9925L38.2274 48.2209L38.28 48.1683L38.3326 48.1157V48.4275V48.7392L38.5859 49.5738L38.8393 50.4082L39.3168 51.2213L39.7945 52.0343L40.115 52.2864L40.4355 52.5384H40.729H41.0226L41.3214 52.2396L41.6203 51.9409L41.6202 51.6614V51.382L41.1307 50.5908L40.6413 49.7996L40.4002 49.026L40.1591 48.2523L40.162 47.3218L40.1651 46.3912L40.2907 45.8434L40.4164 45.2957L40.8275 44.4436L41.2387 43.5915L41.9171 42.7725L42.5954 41.9535L43.356 41.3483L44.1165 40.7431L45.2344 40.1202L46.3521 39.4975L47.5479 38.9737L48.7437 38.45L50.184 37.9467L51.6241 37.4433L53.4717 36.9438L55.3191 36.4443L55.5568 36.2164L55.7945 35.9886L56.4953 28.2259L57.1959 20.4634L57.262 20.1989L57.3282 19.9344L57.6472 19.5555L57.9661 19.1765L58.3108 18.9983L58.6557 18.8201H59.2144H59.7734L60.2433 19.0598L60.7132 19.2995L60.9534 19.6989L61.1935 20.0982L61.2652 20.4045L61.337 20.7108L60.4366 30.6725L59.5364 40.6343L59.2543 41.0446L58.9721 41.455L56.4759 43.4178L53.9797 45.3806L53.8131 45.7176L53.6464 46.0545L53.8142 46.4044L53.9819 46.7542L54.3179 46.9153L54.654 47.0762L55.0109 46.8983L55.3677 46.7204L57.9374 44.684L60.5069 42.6476L60.8666 42.024L61.2263 41.4004L61.3389 40.9744L61.4516 40.5483L62.3233 30.8711L63.1949 21.1938L63.1389 20.4634L63.0829 19.7331L62.811 19.1566L62.5391 18.5801L62.0688 18.0956L61.5985 17.6112L60.955 17.2837L60.3116 16.9562L59.4592 16.9152L58.6068 16.8742L58.0983 17.0405ZM5.6906 18.9983L6.03532 19.1765L6.34388 19.5432L6.65256 19.9098L6.73804 20.299L6.82352 20.688L7.51515 28.3383L8.20691 35.9886L8.4446 36.2164L8.68229 36.4443L10.5297 36.9438L12.3773 37.4433L13.8175 37.9467L15.2577 38.45L16.4535 38.9737L17.6493 39.4975L18.7716 40.119L19.8938 40.7404L20.7941 41.4965L21.6943 42.2525L22.3432 43.1046L22.9921 43.9567L23.3746 44.8696L23.7571 45.7826L23.8154 46.9569L23.8736 48.1312L23.6186 48.9704L23.3636 49.8097L22.8724 50.5695L22.3811 51.3293V51.6351V51.9409L22.68 52.2396L22.9789 52.5384H23.2724H23.5659L23.8864 52.2864L24.2069 52.0343L24.6846 51.2213L25.1621 50.4082L25.4155 49.5738L25.6688 48.7392V48.4275V48.1157L25.7214 48.1683L25.774 48.2209L26.0251 51.9925L26.2762 55.7642L26.3262 56.2207L26.3763 56.6771H20.7338H15.0915L15.0301 56.4641L14.9688 56.2511L14.8837 54.0045L14.7984 51.758L15.6978 52.5729L16.5972 53.3878L16.9401 53.3892L17.2828 53.3905L17.5243 53.2614L17.7656 53.1322L17.887 52.8129L18.0084 52.4936L17.8738 52.1686L17.7391 51.8436L15.9483 50.2521L14.1574 48.6607L9.59335 45.0578L5.02928 41.4548L4.74739 41.045L4.46562 40.6351L3.56381 30.6709L2.662 20.7069L2.78097 20.2808L2.89981 19.8548L3.11218 19.5923L3.32454 19.3298L3.75072 19.0754L4.17691 18.821L4.76139 18.8206L5.34575 18.8201L5.6906 18.9983ZM15.6921 27.7713L16.013 27.9372L16.2181 28.2499L16.423 28.5627L17.517 31.7491L18.6109 34.9354L18.9135 35.4515L19.2161 35.9676L19.5853 36.2306L19.9546 36.4934L21.1648 36.9522L22.375 37.4109L23.067 37.8232L23.759 38.2355L24.4791 38.8958L25.1993 39.556L25.5477 40.0623L25.896 40.5685L26.1477 41.3153L26.3994 42.0622V42.8183V43.5743L26.0753 44.922L25.7511 46.2695L25.538 45.4174L25.3249 44.5653L25.0719 43.9799L24.8189 43.3945L24.2808 42.5629L23.7426 41.7312L22.7888 40.793L21.8349 39.8549L20.7427 39.1245L19.6506 38.3943L18.3674 37.7551L17.0842 37.116L16.2289 36.7931L15.3736 36.4702L14.1734 33.0008L12.973 29.5315L13.0361 29.0617L13.0992 28.592L13.3209 28.2534L13.5428 27.915L14.0349 27.6874L14.5271 27.4598L14.949 27.5326L15.3711 27.6052L15.6921 27.7713ZM49.8996 27.6592L50.3907 27.8555L50.645 28.2127L50.8993 28.5697L50.9639 29.0505L51.0284 29.5315L49.8303 32.9941L48.6324 36.4567L47.5313 36.9085L46.4301 37.3603L45.3616 37.8919L44.2931 38.4236L43.4742 38.9485L42.6553 39.4732L41.8882 40.1116L41.1211 40.7499L40.3897 41.6699L39.6585 42.5898L39.2163 43.4559L38.774 44.3219L38.5107 45.2957L38.2475 46.2695L37.9248 44.922L37.602 43.5743V42.8442V42.1141L37.7954 41.453L37.9888 40.7918L38.3454 40.2301L38.702 39.6685L39.4001 39.0047L40.0982 38.3408L40.9575 37.8318L41.817 37.3227L42.8449 36.95L43.873 36.5771L44.3373 36.2584L44.8016 35.9398L45.0927 35.4431L45.3839 34.9466L46.4791 31.7577L47.5744 28.569L47.7885 28.242L48.0029 27.915L48.495 27.6916L48.9872 27.4681L49.1979 27.4654L49.4085 27.4627L49.8996 27.6592ZM26.3994 60.0246V61.4245H20.7372H15.0751V60.0246V58.6248H20.7372H26.3994V60.0246ZM48.9263 60.0246V61.4245H43.2642H37.602V60.0246V58.6248H43.2642H48.9263V60.0246Z" stroke="white" stroke-width="0.4" mask="url(#path-1-outside-1_14_12339)"/>
</svg>
