<svg width="48" height="49" viewBox="0 0 48 49" fill="none" xmlns="http://www.w3.org/2000/svg">
<path d="M24.6 25.2066C25.6672 24.2829 26.5231 23.1404 27.1097 21.8566C27.6964 20.5729 28 19.178 28 17.7666C28 15.1144 26.9464 12.5709 25.0711 10.6955C23.1957 8.82017 20.6522 7.7666 18 7.7666C15.3478 7.7666 12.8043 8.82017 10.9289 10.6955C9.05357 12.5709 8 15.1144 8 17.7666C7.99998 19.178 8.3036 20.5729 8.89025 21.8566C9.4769 23.1404 10.3328 24.2829 11.4 25.2066C8.60028 26.4744 6.22493 28.5217 4.55796 31.1037C2.89099 33.6857 2.00294 36.6932 2 39.7666C2 40.297 2.21071 40.8057 2.58579 41.1808C2.96086 41.5559 3.46957 41.7666 4 41.7666C4.53043 41.7666 5.03914 41.5559 5.41421 41.1808C5.78929 40.8057 6 40.297 6 39.7666C6 36.584 7.26428 33.5318 9.51472 31.2813C11.7652 29.0309 14.8174 27.7666 18 27.7666C21.1826 27.7666 24.2348 29.0309 26.4853 31.2813C28.7357 33.5318 30 36.584 30 39.7666C30 40.297 30.2107 40.8057 30.5858 41.1808C30.9609 41.5559 31.4696 41.7666 32 41.7666C32.5304 41.7666 33.0391 41.5559 33.4142 41.1808C33.7893 40.8057 34 40.297 34 39.7666C33.9971 36.6932 33.109 33.6857 31.442 31.1037C29.7751 28.5217 27.3997 26.4744 24.6 25.2066ZM18 23.7666C16.8133 23.7666 15.6533 23.4147 14.6666 22.7554C13.6799 22.0961 12.9108 21.1591 12.4567 20.0627C12.0026 18.9663 11.8838 17.7599 12.1153 16.5961C12.3468 15.4322 12.9182 14.3631 13.7574 13.524C14.5965 12.6848 15.6656 12.1134 16.8295 11.8819C17.9933 11.6504 19.1997 11.7692 20.2961 12.2233C21.3925 12.6775 22.3295 13.4465 22.9888 14.4332C23.6481 15.4199 24 16.5799 24 17.7666C24 19.3579 23.3679 20.884 22.2426 22.0092C21.1174 23.1345 19.5913 23.7666 18 23.7666ZM37.48 24.4066C38.7599 22.9653 39.596 21.1847 39.8876 19.2793C40.1792 17.3738 39.9139 15.4247 39.1235 13.6666C38.3332 11.9085 37.0516 10.4162 35.4329 9.36945C33.8143 8.3227 31.9276 7.76609 30 7.7666C29.4696 7.7666 28.9609 7.97732 28.5858 8.35239C28.2107 8.72746 28 9.23617 28 9.7666C28 10.297 28.2107 10.8057 28.5858 11.1808C28.9609 11.5559 29.4696 11.7666 30 11.7666C31.5913 11.7666 33.1174 12.3987 34.2426 13.524C35.3679 14.6492 36 16.1753 36 17.7666C35.9972 18.8171 35.7186 19.8484 35.1921 20.7574C34.6657 21.6665 33.9097 22.4214 33 22.9466C32.7035 23.1176 32.4558 23.3619 32.2807 23.6561C32.1056 23.9502 32.009 24.2844 32 24.6266C31.9916 24.9661 32.0699 25.3022 32.2273 25.6031C32.3848 25.904 32.6163 26.1599 32.9 26.3466L33.68 26.8666L33.94 27.0066C36.3508 28.15 38.3846 29.9586 39.802 32.2192C41.2193 34.4799 41.9611 37.0985 41.94 39.7666C41.94 40.297 42.1507 40.8057 42.5258 41.1808C42.9009 41.5559 43.4096 41.7666 43.94 41.7666C44.4704 41.7666 44.9791 41.5559 45.3542 41.1808C45.7293 40.8057 45.94 40.297 45.94 39.7666C45.9563 36.6975 45.1876 33.6751 43.7069 30.9867C42.2262 28.2983 40.0827 26.0332 37.48 24.4066Z" fill="white"/>
</svg>
