<svg width="67" height="77" viewBox="0 0 67 77" fill="none" xmlns="http://www.w3.org/2000/svg">
<path d="M40.2369 15.8559C39.4921 15.6861 32.8161 14.4375 26.2944 16.4907C19.7726 18.5438 13.9209 25.2086 13.9209 25.2086L12.0852 20.7584L12.3957 16.8274C12.3957 16.8274 16.2685 11.0471 22.9187 8.71576C29.569 6.38438 34.5876 7.07656 37.3952 8.65683L39.639 12.4977L40.2284 15.8518L40.2369 15.8559Z" fill="#DF6E81"/>
<path d="M62.7575 49.4035L60.1605 63.2568C60.1605 63.2568 17.3021 42.9147 12.6705 38.1871C8.04098 33.4658 6.29429 25.7627 9.42322 21.1051C12.5543 16.4538 12.7371 16.4109 12.7371 16.4109C12.7371 16.4109 10.6714 20.4132 15.4618 25.5939C20.2586 30.7723 40.5245 39.4083 40.5245 39.4083L62.7616 49.395L62.7575 49.4035Z" fill="#D51B5D"/>
<path d="M17.3574 64.9379L28.0358 74.1372C28.0358 74.1372 48.8175 31.485 49.4834 24.9002C50.1515 18.3217 46.702 11.2227 41.3561 9.53609C36.006 7.858 35.8387 7.94493 35.8387 7.94493C35.8387 7.94493 39.9576 9.77907 39.4442 16.8191C38.9349 23.8505 28.4934 43.2587 28.4934 43.2587L17.3596 64.9442L17.3574 64.9379Z" fill="#DA4C6E"/>
<g clip-path="url(#clip0_11_12186)">
<path d="M10.9074 11.4282V10.825C10.9074 10.5051 10.7803 10.1982 10.5541 9.97198C10.3278 9.74575 10.021 9.61865 9.70106 9.61865H7.28838C6.96843 9.61865 6.66159 9.74575 6.43536 9.97198C6.20913 10.1982 6.08203 10.5051 6.08203 10.825V11.4282" stroke="white" stroke-width="1.50844" stroke-linecap="round" stroke-linejoin="round"/>
<path d="M8.49443 8.41232C9.16068 8.41232 9.70077 7.87222 9.70077 7.20598C9.70077 6.53973 9.16068 5.99963 8.49443 5.99963C7.82818 5.99963 7.28809 6.53973 7.28809 7.20598C7.28809 7.87222 7.82818 8.41232 8.49443 8.41232Z" stroke="white" stroke-width="1.50844" stroke-linecap="round" stroke-linejoin="round"/>
</g>
<defs>
<clipPath id="clip0_11_12186">
<rect width="7.23807" height="7.23807" fill="white" transform="translate(4.87549 5.09497)"/>
</clipPath>
</defs>
</svg>
